<svg width="43" height="32" viewBox="0 0 43 32" fill="none" xmlns="http://www.w3.org/2000/svg">
    <g clip-path="url(#clip0_2025_112)">
        <path fill-rule="evenodd" clip-rule="evenodd" d="M1.8936 30.6102L20.1012 15.999C21.179 15.1324 21.1277 14.1847 19.7786 13.2002L2.69288 0.792894C0.155858 -1.05085 -0.0055542 0.667942 -0.0055542 1.8582V29.8903C-0.0055542 31.3154 0.493135 31.7341 1.8936 30.6102Z" fill="#000091"/>
        <path fill-rule="evenodd" clip-rule="evenodd" d="M41.3371 1.35888L13.6335 23.8743C12.8123 24.5353 12.8636 24.8658 13.6042 25.3507L19.4119 29.1781C21.157 30.324 22.3963 29.92 23.863 28.73L41.9092 14.0894C42.7889 13.3695 42.987 13.0243 42.9723 11.7975L42.8036 1.68206C42.7889 0.499369 42.437 0.469972 41.3371 1.35888Z" fill="#E1000F"/>
        <path fill-rule="evenodd" clip-rule="evenodd" d="M42.2978 16.4253L33.7623 23.1983C32.7063 24.0357 32.5891 24.0945 33.689 24.9467L42.019 31.3817C42.833 32.0136 42.9944 32.1678 42.9944 31.0659V16.7632C42.9944 16.0139 42.9284 15.926 42.2978 16.4253Z" fill="#E1000F"/>
    </g>
    <defs>
        <clipPath id="clip0_2025_112">
        <rect width="43" height="32" fill="white"/>
        </clipPath>
    </defs>
</svg>
