<svg viewBox="0 0 36 36" fill="none" xmlns="http://www.w3.org/2000/svg">
  <g clip-path="url(#clip0_879_8339)">
    <path
      d="M18 3C9.72 3 3 9.72 3 18C3 26.28 9.72 33 18 33H25.5V30H18C11.49 30 6 24.51 6 18C6 11.49 11.49 6 18 6C24.51 6 30 11.49 30 18V20.145C30 21.33 28.935 22.5 27.75 22.5C26.565 22.5 25.5 21.33 25.5 20.145V18C25.5 13.86 22.14 10.5 18 10.5C13.86 10.5 10.5 13.86 10.5 18C10.5 22.14 13.86 25.5 18 25.5C20.07 25.5 21.96 24.66 23.31 23.295C24.285 24.63 25.965 25.5 27.75 25.5C30.705 25.5 33 23.1 33 20.145V18C33 9.72 26.28 3 18 3ZM18 22.5C15.51 22.5 13.5 20.49 13.5 18C13.5 15.51 15.51 13.5 18 13.5C20.49 13.5 22.5 15.51 22.5 18C22.5 20.49 20.49 22.5 18 22.5Z"
      fill="currentColor"
    />
  </g>
  <defs>
    <clipPath id="clip0_879_8339">
      <rect width="36" height="36" fill="currentColor" />
    </clipPath>
  </defs>
</svg>
