<svg viewBox="0 0 48 48" fill="none" xmlns="http://www.w3.org/2000/svg">
  <g clip-path="url(#clip0_177_15522)">
    <path
      d="M24 25.5C27.26 25.5 30.14 26.28 32.48 27.3C34.64 28.26 36 30.42 36 32.76V36H12V32.78C12 30.42 13.36 28.26 15.52 27.32C17.86 26.28 20.74 25.5 24 25.5ZM8 26C10.2 26 12 24.2 12 22C12 19.8 10.2 18 8 18C5.8 18 4 19.8 4 22C4 24.2 5.8 26 8 26ZM10.26 28.2C9.52 28.08 8.78 28 8 28C6.02 28 4.14 28.42 2.44 29.16C0.96 29.8 0 31.24 0 32.86V36H9V32.78C9 31.12 9.46 29.56 10.26 28.2ZM40 26C42.2 26 44 24.2 44 22C44 19.8 42.2 18 40 18C37.8 18 36 19.8 36 22C36 24.2 37.8 26 40 26ZM48 32.86C48 31.24 47.04 29.8 45.56 29.16C43.86 28.42 41.98 28 40 28C39.22 28 38.48 28.08 37.74 28.2C38.54 29.56 39 31.12 39 32.78V36H48V32.86ZM24 12C27.32 12 30 14.68 30 18C30 21.32 27.32 24 24 24C20.68 24 18 21.32 18 18C18 14.68 20.68 12 24 12Z"
      fill="currentColor"
    />
  </g>
  <defs>
    <clipPath id="clip0_177_15522">
      <rect width="48" height="48" fill="currentColor" />
    </clipPath>
  </defs>
</svg>
