<svg viewBox="0 0 44 44" fill="none" xmlns="http://www.w3.org/2000/svg">
  <g clip-path="url(#clip0_177_15504)">
    <path
      d="M12.8327 16.5H3.66602V12.8333H12.8327V16.5ZM12.8327 22H3.66602V25.6667H12.8327V22ZM37.7477 34.8333L30.726 27.8117C29.2593 28.765 27.536 29.3333 25.666 29.3333C20.606 29.3333 16.4993 25.2267 16.4993 20.1667C16.4993 15.1067 20.606 11 25.666 11C30.726 11 34.8327 15.1067 34.8327 20.1667C34.8327 22.0367 34.2643 23.76 33.311 25.2083L40.3327 32.2483L37.7477 34.8333ZM31.166 20.1667C31.166 17.1417 28.691 14.6667 25.666 14.6667C22.641 14.6667 20.166 17.1417 20.166 20.1667C20.166 23.1917 22.641 25.6667 25.666 25.6667C28.691 25.6667 31.166 23.1917 31.166 20.1667ZM3.66602 34.8333H21.9993V31.1667H3.66602V34.8333Z"
      fill="currentColor"
    />
  </g>
  <defs>
    <clipPath id="clip0_177_15504">
      <rect width="44" height="44" fill="currentColor" />
    </clipPath>
  </defs>
</svg>
