<svg width="24" height="24" viewBox="0 0 24 24" fill="none" xmlns="http://www.w3.org/2000/svg">
<path fill-rule="evenodd" clip-rule="evenodd" d="M21 3C21.5523 3 22 3.44772 22 4V18C22 18.5523 21.5523 19 21 19H6.455L2 22.5V4C2 3.44772 2.44772 3 3 3H21ZM20 5H4V18.385L5.763 17H20V5ZM13 14V16H11V14H13ZM12.4592 6.02822C14.2875 6.27003 15.6148 7.88878 15.4936 9.72908C15.3724 11.5694 13.8443 13.0001 12 13H11V11H12C12.7902 11 13.4448 10.387 13.4967 9.59851C13.5486 8.81006 12.9799 8.11655 12.1966 8.01295C11.4133 7.90935 10.6839 8.43117 10.529 9.206L8.567 8.813C8.92838 7.00447 10.6308 5.78641 12.4592 6.02822Z" fill="#000091"/>
</svg>
