<svg viewBox="0 0 48 42" fill="none" xmlns="http://www.w3.org/2000/svg">
  <path
    fill-rule="evenodd"
    clip-rule="evenodd"
    d="M4.85735 7.9065L0 3.05123L3.05331 0L41.593 38.5397L38.5418 41.591L28.4121 31.4612C27.3276 31.7198 26.2034 31.8554 25.0584 31.8554C22.0135 31.8554 19.1145 30.896 16.7161 29.2275V33.941H2.11688V25.5986C2.11688 23.3045 3.99392 21.4274 6.28807 21.4274H13.108C14.5262 21.4274 15.7984 22.1991 16.6118 23.3462C18.6369 26.2055 21.7569 27.5528 24.6246 27.6759L21.953 25.0021C20.5035 24.4223 19.2334 23.4421 18.322 22.1574C17.0706 20.4055 15.2144 19.4044 13.2123 19.3627C13.5397 18.8037 14.0819 18.2886 14.7765 17.8256L13.5522 16.6013C12.4281 18.2573 10.5302 19.3418 8.37367 19.3418C4.91158 19.3418 2.11688 16.5471 2.11688 13.085C2.11688 10.9285 3.20139 9.03063 4.85735 7.9065ZM24.1804 15.1915C24.4786 15.1769 24.7727 15.1706 25.0584 15.1706C29.3965 15.1706 35.403 16.7974 36.9046 19.3418C34.9025 19.3835 33.0463 20.3846 31.7949 22.1365C31.7031 22.2679 31.6072 22.3951 31.5071 22.5203L24.1804 15.1915ZM32.9962 24.0094C33.3174 23.634 33.4863 23.3754 33.5051 23.3462C34.1933 22.3659 35.403 21.4274 37.0089 21.4274H43.8288C46.123 21.4274 48 23.3045 48 25.5986V33.941H42.9299L32.9962 24.0094ZM41.7432 19.3418C38.2811 19.3418 35.4864 16.5471 35.4864 13.085C35.4864 9.62294 38.2811 6.82824 41.7432 6.82824C45.2053 6.82824 48 9.62294 48 13.085C48 16.5471 45.2053 19.3418 41.7432 19.3418ZM25.0584 13.085C21.5964 13.085 18.8017 10.2903 18.8017 6.82824C18.8017 3.36615 21.5964 0.571453 25.0584 0.571453C28.5205 0.571453 31.3152 3.36615 31.3152 6.82824C31.3152 10.2903 28.5205 13.085 25.0584 13.085Z"
    fill="currentColor"
  />
</svg>
