<svg width="104" height="80" viewBox="0 0 104 80" fill="none" xmlns="http://www.w3.org/2000/svg">
<g filter="url(#filter0_d_1_5775)">
<rect x="53" y="12.5" width="47" height="47" rx="23.5" fill="#E5E5E5"/>
<rect x="53.7907" y="13.2907" width="45.4186" height="45.4186" rx="22.7093" stroke="white" stroke-opacity="0.75" stroke-width="1.58138"/>
<path d="M75.8015 42.2823C75.2317 42.2823 74.8333 42.1966 74.6062 42.0252C74.3792 41.8584 74.2657 41.6152 74.2657 41.2955C74.2657 40.8461 74.4001 40.3759 74.6688 39.8848C74.9421 39.3937 75.3336 38.9327 75.8432 38.5018C76.3575 38.071 76.976 37.7212 77.6987 37.4525C78.4215 37.1838 79.2322 37.0494 80.131 37.0494C81.0344 37.0494 81.8475 37.1838 82.5703 37.4525C83.293 37.7212 83.9092 38.071 84.4188 38.5018C84.9331 38.9327 85.3269 39.3937 85.6002 39.8848C85.8736 40.3759 86.0102 40.8461 86.0102 41.2955C86.0102 41.6152 85.8944 41.8584 85.6628 42.0252C85.4357 42.1966 85.0373 42.2823 84.4675 42.2823H75.8015ZM80.138 35.8124C79.6283 35.8124 79.1604 35.6757 78.7342 35.4024C78.3126 35.129 77.9744 34.7607 77.7196 34.2974C77.4648 33.8341 77.3374 33.3153 77.3374 32.7408C77.3374 32.1755 77.4648 31.6659 77.7196 31.2119C77.979 30.7532 78.3219 30.3895 78.7481 30.1208C79.1743 29.8521 79.6376 29.7178 80.138 29.7178C80.643 29.7178 81.1063 29.8498 81.5279 30.1139C81.9541 30.378 82.2946 30.7393 82.5494 31.198C82.8089 31.652 82.9386 32.1616 82.9386 32.7269C82.9386 33.306 82.8089 33.8295 82.5494 34.2974C82.2946 34.7607 81.9541 35.129 81.5279 35.4024C81.1063 35.6757 80.643 35.8124 80.138 35.8124ZM68.2753 42.2823C67.8074 42.2823 67.4761 42.1873 67.2816 41.9974C67.087 41.8121 66.9897 41.548 66.9897 41.2051C66.9897 40.7326 67.1101 40.2531 67.3511 39.7666C67.592 39.2755 67.9348 38.8238 68.3796 38.4115C68.829 37.9992 69.3664 37.6656 69.9918 37.4108C70.6219 37.156 71.3261 37.0286 72.1045 37.0286C72.7345 37.0286 73.2974 37.1119 73.7932 37.2787C74.2935 37.4409 74.736 37.6447 75.1205 37.8903C74.7267 38.2007 74.3862 38.5528 74.0989 38.9466C73.8117 39.3358 73.5893 39.7365 73.4318 40.1488C73.2789 40.5565 73.2025 40.9457 73.2025 41.3163C73.2025 41.6916 73.2951 42.0136 73.4804 42.2823H68.2753ZM72.1045 35.9722C71.6643 35.9722 71.2589 35.8541 70.8883 35.6178C70.5177 35.3769 70.2212 35.0549 69.9988 34.6519C69.7764 34.2442 69.6652 33.7924 69.6652 33.2967C69.6652 32.801 69.7764 32.3562 69.9988 31.9624C70.2258 31.564 70.5246 31.249 70.8953 31.0173C71.2659 30.781 71.669 30.6629 72.1045 30.6629C72.5399 30.6629 72.943 30.7787 73.3136 31.0104C73.6889 31.2374 73.9877 31.5501 74.2101 31.9485C74.4325 32.3423 74.5437 32.7871 74.5437 33.2828C74.5437 33.7878 74.4325 34.2442 74.2101 34.6519C73.9877 35.0549 73.6912 35.3769 73.3206 35.6178C72.95 35.8541 72.5446 35.9722 72.1045 35.9722Z" fill="white" fill-opacity="0.75"/>
</g>
<g filter="url(#filter1_d_1_5775)">
<rect x="35.75" y="6.5" width="59" height="59" rx="29.5" fill="#CECECE"/>
<rect x="36.7426" y="7.49257" width="57.0149" height="57.0149" rx="28.5074" stroke="white" stroke-opacity="0.75" stroke-width="1.98513"/>
<path d="M64.3732 43.8863C63.6578 43.8863 63.1576 43.7787 62.8727 43.5635C62.5877 43.3541 62.4452 43.0488 62.4452 42.6475C62.4452 42.0834 62.6139 41.4931 62.9512 40.8766C63.2943 40.2601 63.7858 39.6814 64.4255 39.1406C65.071 38.5997 65.8475 38.1606 66.7547 37.8233C67.662 37.486 68.6798 37.3173 69.808 37.3173C70.9421 37.3173 71.9628 37.486 72.8701 37.8233C73.7773 38.1606 74.5508 38.5997 75.1906 39.1406C75.8361 39.6814 76.3305 40.2601 76.6736 40.8766C77.0167 41.4931 77.1883 42.0834 77.1883 42.6475C77.1883 43.0488 77.0429 43.3541 76.7521 43.5635C76.4671 43.7787 75.967 43.8863 75.2516 43.8863H64.3732ZM69.8168 35.7645C69.177 35.7645 68.5896 35.5929 68.0546 35.2498C67.5253 34.9066 67.1008 34.4443 66.7809 33.8627C66.461 33.2811 66.3011 32.6298 66.3011 31.9086C66.3011 31.1991 66.461 30.5593 66.7809 29.9894C67.1066 29.4136 67.537 28.9571 68.072 28.6197C68.6071 28.2824 69.1886 28.1138 69.8168 28.1138C70.4507 28.1138 71.0323 28.2795 71.5615 28.611C72.0966 28.9425 72.524 29.3962 72.8439 29.9719C73.1696 30.5419 73.3324 31.1816 73.3324 31.8911C73.3324 32.6181 73.1696 33.2753 72.8439 33.8627C72.524 34.4443 72.0966 34.9066 71.5615 35.2498C71.0323 35.5929 70.4507 35.7645 69.8168 35.7645ZM54.9254 43.8863C54.338 43.8863 53.9221 43.767 53.6779 43.5286C53.4336 43.296 53.3115 42.9645 53.3115 42.5341C53.3115 41.9409 53.4627 41.3389 53.7651 40.7283C54.0675 40.1118 54.4979 39.5448 55.0562 39.0272C55.6203 38.5095 56.295 38.0908 57.0801 37.7709C57.8711 37.4511 58.7551 37.2911 59.7321 37.2911C60.5231 37.2911 61.2297 37.3958 61.852 37.6052C62.4801 37.8087 63.0355 38.0646 63.5182 38.3729C63.0239 38.7625 62.5964 39.2045 62.2358 39.6989C61.8753 40.1874 61.5961 40.6905 61.3984 41.2081C61.2064 41.7199 61.1105 42.2084 61.1105 42.6737C61.1105 43.1448 61.2268 43.549 61.4594 43.8863H54.9254ZM59.7321 35.9651C59.1796 35.9651 58.6707 35.8168 58.2055 35.5202C57.7402 35.2178 57.368 34.8136 57.0888 34.3076C56.8097 33.7958 56.6701 33.2288 56.6701 32.6065C56.6701 31.9842 56.8097 31.4259 57.0888 30.9315C57.3738 30.4314 57.7489 30.0359 58.2142 29.7451C58.6795 29.4485 59.1854 29.3002 59.7321 29.3002C60.2788 29.3002 60.7848 29.4456 61.2501 29.7364C61.7211 30.0214 62.0963 30.4139 62.3754 30.9141C62.6546 31.4084 62.7942 31.9667 62.7942 32.589C62.7942 33.223 62.6546 33.7958 62.3754 34.3076C62.0963 34.8136 61.724 35.2178 61.2588 35.5202C60.7935 35.8168 60.2846 35.9651 59.7321 35.9651Z" fill="white" fill-opacity="0.75"/>
</g>
<g filter="url(#filter2_d_1_5775)">
<rect x="4" y="12.5" width="47" height="47" rx="23.5" fill="#E5E5E5"/>
<rect x="4.79069" y="13.2907" width="45.4186" height="45.4186" rx="22.7093" stroke="white" stroke-opacity="0.75" stroke-width="1.58138"/>
<path d="M26.8015 42.2823C26.2317 42.2823 25.8333 42.1966 25.6062 42.0252C25.3792 41.8584 25.2657 41.6152 25.2657 41.2955C25.2657 40.8461 25.4001 40.3759 25.6688 39.8848C25.9421 39.3937 26.3336 38.9327 26.8432 38.5018C27.3575 38.071 27.976 37.7212 28.6987 37.4525C29.4215 37.1838 30.2322 37.0494 31.131 37.0494C32.0344 37.0494 32.8475 37.1838 33.5703 37.4525C34.293 37.7212 34.9092 38.071 35.4188 38.5018C35.9331 38.9327 36.3269 39.3937 36.6002 39.8848C36.8736 40.3759 37.0102 40.8461 37.0102 41.2955C37.0102 41.6152 36.8944 41.8584 36.6628 42.0252C36.4357 42.1966 36.0373 42.2823 35.4675 42.2823H26.8015ZM31.138 35.8124C30.6283 35.8124 30.1604 35.6757 29.7342 35.4024C29.3126 35.129 28.9744 34.7607 28.7196 34.2974C28.4648 33.8341 28.3374 33.3153 28.3374 32.7408C28.3374 32.1755 28.4648 31.6659 28.7196 31.2119C28.979 30.7532 29.3219 30.3895 29.7481 30.1208C30.1743 29.8521 30.6376 29.7178 31.138 29.7178C31.643 29.7178 32.1063 29.8498 32.5279 30.1139C32.9541 30.378 33.2946 30.7393 33.5494 31.198C33.8089 31.652 33.9386 32.1616 33.9386 32.7269C33.9386 33.306 33.8089 33.8295 33.5494 34.2974C33.2946 34.7607 32.9541 35.129 32.5279 35.4024C32.1063 35.6757 31.643 35.8124 31.138 35.8124ZM19.2753 42.2823C18.8074 42.2823 18.4761 42.1873 18.2816 41.9974C18.087 41.8121 17.9897 41.548 17.9897 41.2051C17.9897 40.7326 18.1101 40.2531 18.3511 39.7666C18.592 39.2755 18.9348 38.8238 19.3796 38.4115C19.829 37.9992 20.3664 37.6656 20.9918 37.4108C21.6219 37.156 22.3261 37.0286 23.1045 37.0286C23.7345 37.0286 24.2974 37.1119 24.7932 37.2787C25.2935 37.4409 25.736 37.6447 26.1205 37.8903C25.7267 38.2007 25.3862 38.5528 25.0989 38.9466C24.8117 39.3358 24.5893 39.7365 24.4318 40.1488C24.2789 40.5565 24.2025 40.9457 24.2025 41.3163C24.2025 41.6916 24.2951 42.0136 24.4804 42.2823H19.2753ZM23.1045 35.9722C22.6643 35.9722 22.2589 35.8541 21.8883 35.6178C21.5177 35.3769 21.2212 35.0549 20.9988 34.6519C20.7764 34.2442 20.6652 33.7924 20.6652 33.2967C20.6652 32.801 20.7764 32.3562 20.9988 31.9624C21.2258 31.564 21.5246 31.249 21.8953 31.0173C22.2659 30.781 22.669 30.6629 23.1045 30.6629C23.5399 30.6629 23.943 30.7787 24.3136 31.0104C24.6889 31.2374 24.9877 31.5501 25.2101 31.9485C25.4325 32.3423 25.5437 32.7871 25.5437 33.2828C25.5437 33.7878 25.4325 34.2442 25.2101 34.6519C24.9877 35.0549 24.6912 35.3769 24.3206 35.6178C23.95 35.8541 23.5446 35.9722 23.1045 35.9722Z" fill="white" fill-opacity="0.75"/>
</g>
<g filter="url(#filter3_d_1_5775)">
<rect x="8.75" y="6.5" width="59" height="59" rx="29.5" fill="#CECECE"/>
<rect x="9.74257" y="7.49257" width="57.0149" height="57.0149" rx="28.5074" stroke="white" stroke-opacity="0.75" stroke-width="1.98513"/>
<path d="M37.3732 43.8863C36.6578 43.8863 36.1576 43.7787 35.8727 43.5635C35.5877 43.3541 35.4452 43.0488 35.4452 42.6475C35.4452 42.0834 35.6139 41.4931 35.9512 40.8766C36.2943 40.2601 36.7858 39.6814 37.4255 39.1406C38.071 38.5997 38.8475 38.1606 39.7547 37.8233C40.662 37.486 41.6798 37.3173 42.808 37.3173C43.9421 37.3173 44.9628 37.486 45.8701 37.8233C46.7773 38.1606 47.5508 38.5997 48.1906 39.1406C48.8361 39.6814 49.3305 40.2601 49.6736 40.8766C50.0167 41.4931 50.1883 42.0834 50.1883 42.6475C50.1883 43.0488 50.0429 43.3541 49.7521 43.5635C49.4671 43.7787 48.967 43.8863 48.2516 43.8863H37.3732ZM42.8168 35.7645C42.177 35.7645 41.5896 35.5929 41.0546 35.2498C40.5253 34.9066 40.1008 34.4443 39.7809 33.8627C39.461 33.2811 39.3011 32.6298 39.3011 31.9086C39.3011 31.1991 39.461 30.5593 39.7809 29.9894C40.1066 29.4136 40.537 28.9571 41.072 28.6197C41.6071 28.2824 42.1886 28.1138 42.8168 28.1138C43.4507 28.1138 44.0323 28.2795 44.5615 28.611C45.0966 28.9425 45.524 29.3962 45.8439 29.9719C46.1696 30.5419 46.3324 31.1816 46.3324 31.8911C46.3324 32.6181 46.1696 33.2753 45.8439 33.8627C45.524 34.4443 45.0966 34.9066 44.5615 35.2498C44.0323 35.5929 43.4507 35.7645 42.8168 35.7645ZM27.9254 43.8863C27.338 43.8863 26.9221 43.767 26.6779 43.5286C26.4336 43.296 26.3115 42.9645 26.3115 42.5341C26.3115 41.9409 26.4627 41.3389 26.7651 40.7283C27.0675 40.1118 27.4979 39.5448 28.0562 39.0272C28.6203 38.5095 29.295 38.0908 30.0801 37.7709C30.8711 37.4511 31.7551 37.2911 32.7321 37.2911C33.5231 37.2911 34.2297 37.3958 34.852 37.6052C35.4801 37.8087 36.0355 38.0646 36.5182 38.3729C36.0239 38.7625 35.5964 39.2045 35.2358 39.6989C34.8753 40.1874 34.5961 40.6905 34.3984 41.2081C34.2064 41.7199 34.1105 42.2084 34.1105 42.6737C34.1105 43.1448 34.2268 43.549 34.4594 43.8863H27.9254ZM32.7321 35.9651C32.1796 35.9651 31.6707 35.8168 31.2055 35.5202C30.7402 35.2178 30.368 34.8136 30.0888 34.3076C29.8097 33.7958 29.6701 33.2288 29.6701 32.6065C29.6701 31.9842 29.8097 31.4259 30.0888 30.9315C30.3738 30.4314 30.7489 30.0359 31.2142 29.7451C31.6795 29.4485 32.1854 29.3002 32.7321 29.3002C33.2788 29.3002 33.7848 29.4456 34.2501 29.7364C34.7211 30.0214 35.0963 30.4139 35.3754 30.9141C35.6546 31.4084 35.7942 31.9667 35.7942 32.589C35.7942 33.223 35.6546 33.7958 35.3754 34.3076C35.0963 34.8136 34.724 35.2178 34.2588 35.5202C33.7935 35.8168 33.2846 35.9651 32.7321 35.9651Z" fill="white" fill-opacity="0.75"/>
</g>
<g filter="url(#filter4_d_1_5775)">
<rect x="16.25" y="0.5" width="71" height="71" rx="35.5" fill="url(#paint0_linear_1_5775)"/>
<rect x="17.4444" y="1.69444" width="68.6111" height="68.6111" rx="34.3056" stroke="white" stroke-opacity="0.75" stroke-width="2.38889"/>
<path d="M44.9312 45.2695C44.3569 45.2695 43.9058 45.1396 43.5776 44.8799C43.2495 44.6201 43.0854 44.2646 43.0854 43.8135C43.0854 43.1504 43.2837 42.4565 43.6802 41.7319C44.0835 41.0073 44.6611 40.3271 45.4131 39.6914C46.1719 39.0557 47.0845 38.5396 48.1509 38.1431C49.2173 37.7466 50.4136 37.5483 51.7397 37.5483C53.0728 37.5483 54.2725 37.7466 55.3389 38.1431C56.4053 38.5396 57.3145 39.0557 58.0664 39.6914C58.8252 40.3271 59.4062 41.0073 59.8096 41.7319C60.2129 42.4565 60.4146 43.1504 60.4146 43.8135C60.4146 44.2646 60.2505 44.6201 59.9224 44.8799C59.5942 45.1396 59.1431 45.2695 58.5688 45.2695H44.9312ZM51.75 35.7231C51.0049 35.7231 50.3179 35.5215 49.689 35.1182C49.0669 34.7148 48.5645 34.1714 48.1816 33.4878C47.8057 32.8042 47.6177 32.0386 47.6177 31.1909C47.6177 30.3569 47.8057 29.605 48.1816 28.9351C48.5645 28.2583 49.0703 27.7217 49.6992 27.3252C50.3281 26.9287 51.0117 26.7305 51.75 26.7305C52.4951 26.7305 53.1821 26.9253 53.811 27.3149C54.4399 27.7046 54.9424 28.2378 55.3184 28.9146C55.7012 29.5845 55.8926 30.3364 55.8926 31.1704C55.8926 32.0249 55.7012 32.7974 55.3184 33.4878C54.9424 34.1714 54.4399 34.7148 53.811 35.1182C53.1821 35.5215 52.4951 35.7231 51.75 35.7231Z" fill="#E9E9E9"/>
</g>
<defs>
<filter id="filter0_d_1_5775" x="49" y="12.5" width="55" height="55" filterUnits="userSpaceOnUse" color-interpolation-filters="sRGB">
<feFlood flood-opacity="0" result="BackgroundImageFix"/>
<feColorMatrix in="SourceAlpha" type="matrix" values="0 0 0 0 0 0 0 0 0 0 0 0 0 0 0 0 0 0 127 0" result="hardAlpha"/>
<feOffset dy="4"/>
<feGaussianBlur stdDeviation="2"/>
<feComposite in2="hardAlpha" operator="out"/>
<feColorMatrix type="matrix" values="0 0 0 0 0 0 0 0 0 0 0 0 0 0 0 0 0 0 0.04 0"/>
<feBlend mode="normal" in2="BackgroundImageFix" result="effect1_dropShadow_1_5775"/>
<feBlend mode="normal" in="SourceGraphic" in2="effect1_dropShadow_1_5775" result="shape"/>
</filter>
<filter id="filter1_d_1_5775" x="31.75" y="6.5" width="67" height="67" filterUnits="userSpaceOnUse" color-interpolation-filters="sRGB">
<feFlood flood-opacity="0" result="BackgroundImageFix"/>
<feColorMatrix in="SourceAlpha" type="matrix" values="0 0 0 0 0 0 0 0 0 0 0 0 0 0 0 0 0 0 127 0" result="hardAlpha"/>
<feOffset dy="4"/>
<feGaussianBlur stdDeviation="2"/>
<feComposite in2="hardAlpha" operator="out"/>
<feColorMatrix type="matrix" values="0 0 0 0 0 0 0 0 0 0 0 0 0 0 0 0 0 0 0.04 0"/>
<feBlend mode="normal" in2="BackgroundImageFix" result="effect1_dropShadow_1_5775"/>
<feBlend mode="normal" in="SourceGraphic" in2="effect1_dropShadow_1_5775" result="shape"/>
</filter>
<filter id="filter2_d_1_5775" x="0" y="12.5" width="55" height="55" filterUnits="userSpaceOnUse" color-interpolation-filters="sRGB">
<feFlood flood-opacity="0" result="BackgroundImageFix"/>
<feColorMatrix in="SourceAlpha" type="matrix" values="0 0 0 0 0 0 0 0 0 0 0 0 0 0 0 0 0 0 127 0" result="hardAlpha"/>
<feOffset dy="4"/>
<feGaussianBlur stdDeviation="2"/>
<feComposite in2="hardAlpha" operator="out"/>
<feColorMatrix type="matrix" values="0 0 0 0 0 0 0 0 0 0 0 0 0 0 0 0 0 0 0.04 0"/>
<feBlend mode="normal" in2="BackgroundImageFix" result="effect1_dropShadow_1_5775"/>
<feBlend mode="normal" in="SourceGraphic" in2="effect1_dropShadow_1_5775" result="shape"/>
</filter>
<filter id="filter3_d_1_5775" x="4.75" y="6.5" width="67" height="67" filterUnits="userSpaceOnUse" color-interpolation-filters="sRGB">
<feFlood flood-opacity="0" result="BackgroundImageFix"/>
<feColorMatrix in="SourceAlpha" type="matrix" values="0 0 0 0 0 0 0 0 0 0 0 0 0 0 0 0 0 0 127 0" result="hardAlpha"/>
<feOffset dy="4"/>
<feGaussianBlur stdDeviation="2"/>
<feComposite in2="hardAlpha" operator="out"/>
<feColorMatrix type="matrix" values="0 0 0 0 0 0 0 0 0 0 0 0 0 0 0 0 0 0 0.04 0"/>
<feBlend mode="normal" in2="BackgroundImageFix" result="effect1_dropShadow_1_5775"/>
<feBlend mode="normal" in="SourceGraphic" in2="effect1_dropShadow_1_5775" result="shape"/>
</filter>
<filter id="filter4_d_1_5775" x="12.25" y="0.5" width="79" height="79" filterUnits="userSpaceOnUse" color-interpolation-filters="sRGB">
<feFlood flood-opacity="0" result="BackgroundImageFix"/>
<feColorMatrix in="SourceAlpha" type="matrix" values="0 0 0 0 0 0 0 0 0 0 0 0 0 0 0 0 0 0 127 0" result="hardAlpha"/>
<feOffset dy="4"/>
<feGaussianBlur stdDeviation="2"/>
<feComposite in2="hardAlpha" operator="out"/>
<feColorMatrix type="matrix" values="0 0 0 0 0 0 0 0 0 0 0 0 0 0 0 0 0 0 0.04 0"/>
<feBlend mode="normal" in2="BackgroundImageFix" result="effect1_dropShadow_1_5775"/>
<feBlend mode="normal" in="SourceGraphic" in2="effect1_dropShadow_1_5775" result="shape"/>
</filter>
<linearGradient id="paint0_linear_1_5775" x1="51.75" y1="-8" x2="53.75" y2="91.5" gradientUnits="userSpaceOnUse">
<stop stop-color="#929292"/>
<stop offset="1" stop-color="#CECECE"/>
</linearGradient>
</defs>
</svg>
