<svg width="216" height="141" viewBox="0 0 216 141" fill="none" xmlns="http://www.w3.org/2000/svg">
    <path fill-rule="evenodd" clip-rule="evenodd"
          d="M74.7323 91.417C74.7338 91.0285 74.7338 90.64 74.7346 90.2515H74.719V84.5017C74.719 83.9579 74.9771 83.5694 75.3962 83.3363L107.054 65.0003C107.473 64.7673 107.989 64.7673 108.408 65.0003L140.065 83.3363C140.484 83.5694 140.742 83.9579 140.742 84.5017V90.4845H140.727C140.732 92.4269 140.735 94.4467 140.738 96.3891H140.742V97.5545V121.252C140.742 121.718 140.482 122.184 140.059 122.417L137.651 123.816C137.433 123.972 137.205 124.127 136.968 124.282C130.467 128.012 123.953 131.819 117.434 135.548C117.174 135.47 116.893 135.315 116.583 135.16C114.312 134.15 111.05 133.14 110.914 132.984C110.423 132.518 110.117 130.498 110.816 128.167C111.002 127.545 111.257 126.924 111.596 126.302C111.622 126.224 111.648 126.147 111.675 126.147C111.69 126.07 111.706 126.069 111.72 126.069C111.961 125.603 112.23 125.215 112.531 124.826C112.56 124.826 112.59 124.748 112.619 124.748C112.663 124.67 112.707 124.671 112.751 124.593C112.824 124.516 112.899 124.437 112.975 124.36C112.98 124.36 112.984 124.36 112.988 124.36C113.355 123.971 113.77 123.583 114.235 123.194C114.647 123.039 115.161 122.883 115.675 122.806C117.426 122.806 119.175 123.35 120.926 123.505C121.132 123.505 121.338 123.661 121.543 123.738C122.162 123.816 122.882 123.816 123.5 123.661C124.221 123.428 125.044 123.039 125.353 122.107C125.601 121.33 125.868 120.553 125.456 119.853C124.838 118.921 126.074 118.611 126.485 117.989C126.794 117.445 126.279 117.134 126.177 116.668C126.074 116.435 125.661 116.512 125.456 116.202C126.177 115.891 127.309 115.269 126.794 114.415C126.485 113.871 125.971 113.017 126.589 112.55C127.309 112.084 128.442 112.239 128.75 111.462C129.265 110.297 128.133 109.209 127.515 108.199C127.206 107.577 126.794 107.189 126.383 106.568C125.971 105.868 125.456 105.247 125.25 104.392C124.941 103.615 125.353 102.838 125.353 102.061C125.456 100.508 125.044 98.9537 124.633 97.3997C124.324 96.7005 124.221 95.8455 123.911 95.1462C123.809 94.7578 123.706 94.2919 123.397 93.9034C123.294 93.6703 123.294 93.3592 123.397 93.2038C123.809 92.8931 124.221 92.5824 124.633 92.1939C124.941 91.6501 124.735 90.9508 124.221 90.64C123.5 90.3292 123.603 91.3394 123.088 91.5725H122.779C122.677 91.2617 122.882 91.1057 123.088 90.9504C123.088 90.795 123.088 90.64 122.985 90.64C122.573 90.64 122.162 90.4843 122.059 90.3289C121.029 88.8527 119.588 88.1538 118.044 87.5322C118.455 87.6099 118.867 87.7651 119.279 87.7651C119.999 87.8428 120.823 87.843 121.441 87.5322C121.956 87.2991 122.059 86.5221 122.265 85.9783C122.471 85.5898 122.162 84.9681 121.956 84.6573C121.483 83.8803 120.748 83.4145 119.993 83.026C119.606 82.7929 118.989 82.4821 118.514 82.249C118.392 82.1713 118.295 82.0935 118.218 82.0935C118.211 82.0158 118.202 82.0153 118.192 82.0153C117.333 81.5491 112.287 80.1511 107.329 80.1511C102.37 80.1511 96.787 82.1709 96.787 82.1709C96.2731 82.3263 95.491 82.6375 94.6607 83.026C93.6711 83.4145 92.3051 84.0357 91.4826 85.0458C90.6593 86.0558 89.8353 87.1434 89.5266 88.3865C88.1879 89.1635 87.3654 90.4068 86.6439 91.6499C85.7172 93.3592 84.3793 94.9133 84.5845 96.8557C84.7913 98.565 85.2034 100.041 85.512 101.828C85.6146 102.449 85.7172 102.994 85.9233 103.615C86.1293 104.159 85.9233 104.936 86.2319 105.402C86.4379 105.713 86.3353 106.179 86.7473 106.335V106.801C86.8499 106.878 86.85 106.956 87.056 106.956V107.422C87.2931 107.655 87.5481 107.966 87.8023 108.277C87.538 108.433 87.2239 108.51 87.105 108.51H87.1104C87.3732 108.51 87.6204 108.433 87.8155 108.277C88.439 108.976 89.0601 109.676 89.424 110.453C89.63 111.074 88.3939 110.763 87.8792 110.608C86.9899 110.142 86.4076 109.442 85.7344 108.82L86.05 107.966C85.98 107.888 85.9272 107.733 85.9038 107.578H85.9015C85.7382 107.422 85.6108 107.189 85.5859 106.878C85.4957 106.723 85.4257 106.645 85.3689 106.49C85.3184 106.334 85.2547 106.101 85.2321 106.024C85.016 105.635 84.9181 105.247 84.8862 104.781C84.866 104.548 84.9103 104.237 84.817 103.926C84.5915 103.304 84.4757 102.683 84.363 102.061C84.0505 100.274 83.6361 98.7206 83.4278 97.0112C83.427 97.0112 83.4254 97.0112 83.4246 97.0112C83.2979 95.7681 83.6221 94.6798 84.1469 93.6697C84.5752 92.8151 85.1458 91.9606 85.6131 91.1059C85.6208 91.1059 85.6286 91.1062 85.6372 91.0285C86.3804 89.7854 87.2386 88.5419 88.5292 87.6096C88.942 86.4441 89.7443 85.3562 90.5723 84.3462H90.5808C91.5184 83.1808 93.0553 82.4041 94.1849 81.9379C95.0471 81.5494 95.8595 81.239 96.3959 81.0836H96.4029C96.6307 81.0059 102.292 78.9856 107.33 78.9856C112.55 78.9856 117.855 80.5392 118.759 81.0054C118.771 81.0054 118.783 81.0059 118.795 81.0836C118.804 81.0836 118.812 81.0836 118.821 81.0836C118.891 81.0836 118.972 81.161 119.066 81.161C119.537 81.4717 120.149 81.7825 120.533 81.9379C121.464 82.4818 122.352 83.1035 122.939 84.0359C123.123 84.269 123.349 84.7351 123.444 85.2013C123.54 85.5898 123.507 86.0557 123.334 86.4441H123.323C123.201 86.8326 123.105 87.2214 122.943 87.5322C122.73 87.9984 122.427 88.309 122.044 88.5421C122.336 88.7752 122.612 89.0861 122.869 89.4746C122.909 89.4746 122.952 89.4746 122.985 89.4746C123.122 89.4746 123.25 89.4746 123.369 89.4746C123.703 89.3192 124.12 89.3189 124.68 89.552C124.728 89.552 124.775 89.5524 124.82 89.6301C125.866 90.2517 126.26 91.7279 125.632 92.738C125.583 92.8157 125.524 92.8932 125.456 92.9709C125.184 93.2817 124.913 93.5143 124.64 93.6697C124.824 94.0582 124.929 94.447 125.019 94.7578C125.3 95.457 125.408 96.2338 125.704 96.9331C125.727 97.0108 125.744 97.0109 125.759 97.0886C126.202 98.798 126.622 100.43 126.519 102.061C126.516 102.45 126.445 102.838 126.373 103.227C126.324 103.46 126.239 103.693 126.342 104.004C126.358 104.004 126.371 104.081 126.381 104.081C126.557 104.781 127.016 105.325 127.386 105.946C127.805 106.568 128.214 107.033 128.534 107.655H128.549C128.947 108.277 129.506 108.976 129.793 109.676C130.093 110.375 130.164 111.151 129.827 111.928H129.822C129.569 112.55 129.09 112.939 128.457 113.172C128.19 113.25 127.875 113.327 127.583 113.405C127.652 113.482 127.737 113.716 127.794 113.793C127.801 113.793 127.807 113.793 127.814 113.793C128.283 114.648 128.141 115.425 127.71 116.047C127.605 116.124 127.473 116.28 127.325 116.435C127.349 116.513 127.413 116.59 127.451 116.668C127.523 116.746 127.587 116.901 127.634 117.057C127.808 117.523 127.836 117.989 127.485 118.611C127.476 118.611 127.466 118.611 127.456 118.611C127.295 118.844 127.068 119.076 126.813 119.309C126.749 119.309 126.663 119.387 126.583 119.465C127.016 120.475 126.785 121.485 126.459 122.495C126.015 123.816 124.882 124.437 123.844 124.748C123.055 124.981 122.139 125.059 121.351 124.904C121.237 124.904 121.126 124.826 121.022 124.748C120.97 124.748 120.879 124.748 120.84 124.671C120.823 124.671 120.806 124.671 120.79 124.671C119.121 124.515 117.455 123.971 115.779 123.971C115.448 124.049 115.12 124.127 114.829 124.205C114.466 124.516 114.139 124.826 113.848 125.137C113.839 125.137 113.83 125.137 113.809 125.137C113.75 125.214 113.69 125.293 113.634 125.37C113.596 125.37 113.558 125.447 113.522 125.525H113.515C113.491 125.525 113.466 125.526 113.442 125.603C113.177 125.914 112.94 126.302 112.731 126.613C112.718 126.613 112.703 126.691 112.689 126.691C112.667 126.768 112.644 126.768 112.622 126.846C112.323 127.39 112.098 127.934 111.934 128.478C111.571 129.721 111.511 130.809 111.621 131.586C111.644 131.741 111.696 131.974 111.735 132.129C112.561 132.362 115.327 133.372 117.058 134.072C117.167 134.149 117.274 134.227 117.375 134.227C123.718 130.575 130.056 126.924 136.382 123.272C136.582 123.117 136.775 123.039 136.96 122.884C136.996 122.884 137.034 122.806 137.073 122.806L139.476 121.407C139.538 121.407 139.576 121.329 139.576 121.252V96.4672C139.573 96.4672 139.572 96.3891 139.572 96.3891C139.569 94.4467 139.565 92.4269 139.561 90.4845C139.562 90.873 139.754 91.2616 140.048 91.417C139.762 91.2616 139.576 90.873 139.576 90.4845V84.5017C139.576 84.424 139.541 84.3462 139.482 84.3462L107.825 66.0102C107.767 66.0102 107.695 66.0102 107.637 66.0102L75.9792 84.3462C75.9209 84.3462 75.8852 84.424 75.8852 84.5017V90.2515L74.7323 91.417ZM85.617 109.132C86.1961 109.753 87.1135 110.452 86.4379 110.918C86.0259 111.074 85.512 110.608 85.1 110.997C84.9974 111.152 85.1 111.385 85.1 111.618C84.4819 111.152 83.8646 111.384 83.2474 111.151C82.8353 111.074 82.7319 110.297 82.2165 110.297C80.8786 109.986 79.6432 109.675 78.3053 109.52C77.0863 109.442 75.9116 109.209 74.7222 109.209C74.7152 103.304 74.7191 97.3219 74.7323 91.417L75.9007 90.2515C75.886 96.2341 75.8813 102.139 75.8875 108.122C76.7225 108.199 77.5605 108.277 78.4188 108.355C79.7746 108.51 81.0317 108.821 82.3681 109.132C82.7755 109.132 83.1106 109.287 83.392 109.597C83.5148 109.753 83.6936 109.986 83.797 110.141C83.9548 110.141 84.1134 110.141 84.2712 110.141H84.2751C84.4018 110.064 84.5604 109.908 84.7323 109.908C84.5472 109.675 84.3793 109.442 84.293 109.287C84.1927 109.132 84.1398 108.898 84.1398 108.743C84.1398 108.277 84.4765 107.811 84.5565 107.733C84.5698 107.733 84.5791 107.733 84.5791 107.733L85.4086 109.676L85.617 109.132ZM89.5375 121.252C89.2016 121.873 88.7414 122.262 88.1879 122.728C87.5706 123.039 87.1586 123.505 86.6439 123.738C86.3353 123.971 86.0259 124.127 85.7172 124.36C84.3412 124.826 82.9115 125.526 81.6793 126.147L81.2673 125.914L81.5635 126.147L75.4024 122.573C74.9795 122.34 74.719 121.874 74.719 121.407V112.628H74.7276L74.7268 112.395C75.865 112.628 76.9915 112.861 78.0993 113.249C79.026 113.56 79.8493 113.949 80.6726 114.493C81.0846 114.804 81.2914 115.114 81.7026 115.27C81.8799 115.425 82.082 115.503 82.2911 115.503C82.295 115.58 82.3005 115.581 82.3075 115.658C82.4124 116.202 82.8929 116.59 83.4526 116.59C83.4526 116.59 83.4083 116.512 83.3422 116.357C83.0592 116.202 82.8579 115.891 82.8112 115.58C82.8105 115.58 82.8104 115.58 82.8097 115.58C83.0382 115.502 83.2598 115.502 83.4526 115.425H83.9673C85.512 114.958 87.1586 114.57 88.1879 113.482C88.1879 113.56 88.2905 113.56 88.3939 113.56C88.0853 114.415 88.0853 115.27 87.468 116.047C87.468 116.124 87.3654 116.358 87.5706 116.435H87.7767C87.6733 116.435 87.5706 116.435 87.5706 116.513C87.5706 116.746 87.8793 116.512 87.9819 116.746C87.482 116.823 86.9806 116.979 86.6696 117.367C86.623 117.289 86.5794 117.212 86.5413 117.134V117.445C86.5996 117.445 86.6579 117.445 86.7139 117.445C86.7831 117.445 86.8881 117.445 86.9526 117.445C86.7473 117.678 86.4379 117.6 86.3353 117.755C86.3353 117.755 86.4379 117.911 86.5413 117.911C86.4379 117.911 86.3353 117.911 86.3353 117.989V118.299C86.0259 118.299 85.9232 118.533 85.7172 118.611C86.1293 118.921 86.4379 118.611 86.85 118.611C85.7172 118.999 84.7914 119.621 83.6586 119.932C83.4526 119.932 83.6586 120.242 83.4526 120.242C83.7613 120.475 83.9673 120.165 84.2759 120.165C82.8354 120.941 81.394 121.718 79.8493 122.573C79.8493 122.573 79.6432 122.806 79.6432 123.039H79.232C79.026 123.117 79.1286 123.428 78.9234 123.661C79.438 123.972 80.0553 123.195 80.3639 123.661C80.4673 123.661 80.1579 123.738 79.9519 123.738C79.8493 123.738 79.8492 123.971 79.7466 123.971H79.438C79.3261 124.049 79.2141 124.127 79.1356 124.205L79.6666 124.671C81.5705 124.515 83.5094 124.515 85.306 123.505C86.6245 122.884 87.8777 122.029 89.0112 120.941C89.1565 121.097 89.3377 121.252 89.5375 121.252ZM89.8718 120.165C89.9014 120.242 89.9379 120.32 89.9379 120.32C89.9083 120.475 89.8757 120.553 89.8407 120.63C89.8469 120.475 89.8563 120.32 89.8718 120.165ZM85.6799 127.002C85.7258 127.002 85.7717 127.002 85.8168 127.002L86.312 127.467L86.5693 127.623L86.3967 126.691C86.4791 126.691 86.5615 126.613 86.6439 126.613V126.846C88.1879 126.224 89.3214 124.904 90.8653 124.36C90.9679 124.36 91.174 124.593 91.38 124.438C92.3067 123.661 93.336 122.728 94.6747 122.884C94.6747 123.039 94.6747 123.117 94.7774 123.117C94.8007 123.117 94.8255 123.117 94.8473 123.117C94.4811 123.428 94.115 123.66 93.7473 123.971C93.6446 124.049 93.7473 124.127 93.8507 124.127C94.3653 123.971 94.6747 123.505 95.1894 123.35C95.086 123.427 95.086 123.661 94.9833 123.738C94.6242 123.971 94.2495 124.282 93.8631 124.671C92.5951 125.758 91.5238 126.924 90.4292 128.167H90.4424C89.8554 128.789 89.2654 129.41 88.6808 129.954C88.6411 130.032 88.5992 130.032 88.5541 130.109C87.0296 129.255 85.5058 128.322 83.9828 127.467C84.2448 127.467 84.5138 127.39 84.7913 127.313C85.072 127.313 85.3449 127.157 85.6162 127.079L85.8331 127.157L85.6799 127.002ZM78.1141 122.728C78.1071 122.728 78.1 122.728 78.0946 122.728L78.4779 122.961C78.4826 122.806 78.5183 122.65 78.5689 122.573C78.5471 122.262 78.6334 122.029 78.9264 121.874C78.9568 121.874 78.9824 121.796 78.9988 121.796C79.0135 121.796 79.0244 121.796 79.0244 121.796L79.0586 121.874C79.113 121.874 79.1737 121.874 79.239 121.874H79.3175L79.2499 121.64C80.3196 120.941 81.3396 120.397 82.3448 119.853C82.3992 119.698 82.4878 119.543 82.6021 119.465C82.6775 119.31 82.77 119.154 82.8758 118.999C83.0188 118.921 83.2023 118.844 83.4526 118.766C83.8468 118.688 84.216 118.533 84.5791 118.378C84.6491 118.067 84.8504 117.756 85.1334 117.601C85.1334 117.601 85.1544 117.6 85.1909 117.523C85.2111 117.445 85.2446 117.367 85.292 117.29C85.3456 117.134 85.4412 117.056 85.5532 116.979C85.5921 116.823 85.6449 116.746 85.711 116.668C85.8813 116.435 86.0857 116.28 86.3143 116.124C86.3081 116.046 86.3089 115.969 86.3081 115.891C85.6442 116.124 84.9499 116.357 84.2681 116.513C84.1702 116.59 84.0691 116.59 83.9673 116.59C83.9673 116.59 83.6547 116.59 83.6501 116.59C82.8711 116.823 81.8791 116.746 81.1398 116.357C80.7021 116.124 80.4502 115.813 80.0117 115.425H79.9845C79.2662 114.958 78.5455 114.648 77.737 114.337C77.1252 114.182 76.5071 114.026 75.8852 113.871V121.407C75.8852 121.407 75.9233 121.485 75.9855 121.563L78.0798 122.728C78.0907 122.728 78.1024 122.728 78.1141 122.728ZM78.1141 122.728C78.2035 122.418 78.4141 122.107 78.7119 121.951C78.4693 122.107 78.2563 122.418 78.1141 122.728ZM89.4815 127.467C89.5049 127.39 89.5297 127.39 89.5562 127.39C90.0918 126.769 90.6228 126.147 91.1724 125.603C91.1001 125.603 91.0302 125.603 90.9633 125.603C90.4144 125.836 89.9254 126.147 89.431 126.536C88.6893 127.002 87.9422 127.546 87.0878 127.934C87.5123 128.167 87.9368 128.4 88.3612 128.633C88.7344 128.244 89.1084 127.856 89.4815 127.467ZM139.58 96.3891L140.728 97.4771C140.631 97.3217 139.854 95.535 139.709 95.8458C139.605 96.0012 139.569 96.2337 139.58 96.3891ZM86.8352 107.889L86.8445 107.966C86.9782 107.888 87.1073 107.888 87.2262 107.811C87.2348 107.811 87.2433 107.811 87.2519 107.811C87.0863 107.888 86.9285 107.889 86.8352 107.889ZM74.7245 110.763L74.7237 110.453C75.844 110.219 76.92 109.986 77.9959 110.064C78.3053 110.064 78.7173 109.986 79.026 110.064C77.5108 109.986 76.1332 110.374 74.7245 110.763ZM119.469 105.635C119.557 105.635 119.644 105.635 119.731 105.635C120.04 105.635 119.937 105.169 120.246 104.936H120.555C121.172 104.081 122.408 103.926 122.614 103.071C122.614 102.916 121.996 102.916 121.584 102.76C120.976 102.605 120.453 102.76 119.834 102.76C119.011 102.993 118.291 103.071 117.57 103.382C118.187 102.993 118.805 102.605 119.526 102.372C120.04 102.294 120.555 101.983 121.071 101.983C121.687 101.828 122.305 101.672 122.821 101.828C123.335 102.061 124.158 102.061 124.262 102.372C124.467 102.993 123.952 103.615 123.335 104.004C123.233 104.237 123.643 104.314 123.643 104.547C123.54 104.703 123.233 104.858 123.026 104.858C122.821 104.936 122.615 105.247 122.409 105.48C122.615 105.48 122.408 105.791 122.614 105.791C122.202 106.257 122.821 107.267 122.202 107.5C121.482 107.733 120.658 107.733 119.834 107.5C120.246 107.423 120.761 107.578 121.071 107.189V106.801C121.071 106.723 120.967 106.723 120.864 106.723C120.761 106.801 120.658 106.801 120.658 106.801C120.658 106.568 120.453 106.412 120.349 106.412C119.731 106.49 119.217 106.179 118.805 105.791C118.972 105.713 119.138 105.635 119.305 105.635C119.343 105.713 119.386 105.713 119.432 105.791L119.469 105.635Z"
          fill="#000091"/>
    <path fill-rule="evenodd" clip-rule="evenodd"
          d="M81.2672 125.914L81.5634 126.147L75.4023 122.573C74.9794 122.34 74.719 121.874 74.719 121.407V112.628H74.7275C74.7275 112.55 74.7275 112.473 74.7267 112.395C75.8649 112.628 76.9914 112.861 78.0992 113.249C79.0259 113.56 79.8492 113.949 80.6725 114.493C81.0845 114.804 81.2913 115.114 81.7025 115.27C82.2164 115.581 82.9379 115.58 83.4525 115.425H83.9672C85.5119 114.958 87.1585 114.57 88.1878 113.482C88.1878 113.56 88.2905 113.56 88.3939 113.56C88.0852 114.415 88.0852 115.27 87.4679 116.047C87.4679 116.124 87.3653 116.358 87.5705 116.435H87.7766C87.6732 116.435 87.5705 116.435 87.5705 116.513C87.5705 116.746 87.8792 116.512 87.9818 116.746C87.4679 116.823 86.9525 116.979 86.6438 117.367C86.6438 117.445 86.8499 117.445 86.9525 117.445C86.7473 117.678 86.4379 117.6 86.3352 117.755C86.3352 117.755 86.4378 117.911 86.5412 117.911C86.4378 117.911 86.3352 117.911 86.3352 117.989V118.299C86.0258 118.299 85.9232 118.533 85.7171 118.611C86.1292 118.921 86.4378 118.611 86.8499 118.611C85.7172 118.999 84.7913 119.621 83.6586 119.932C83.4526 119.932 83.6586 120.242 83.4525 120.242C83.7612 120.475 83.9672 120.165 84.2759 120.165C82.8353 120.941 81.3939 121.718 79.8492 122.573C79.8492 122.573 79.6432 122.806 79.6432 123.039H79.2319C79.0259 123.117 79.1285 123.428 78.9233 123.661C79.4379 123.972 80.0552 123.195 80.3638 123.661C80.4672 123.661 80.1578 123.738 79.9518 123.738C79.8492 123.738 79.8492 123.971 79.7465 123.971H79.4379C79.326 124.049 79.2141 124.127 79.1355 124.205L79.6665 124.671C81.5704 124.515 83.5093 124.515 85.3059 123.505C86.9525 122.728 88.4973 121.563 89.8352 120.165C89.8352 120.165 89.9378 120.242 89.9378 120.32C89.6299 121.408 89.0119 122.107 88.1878 122.728C87.5706 123.039 87.1585 123.505 86.6438 123.738C86.3352 123.971 86.0258 124.127 85.7171 124.36C84.3411 124.826 82.9115 125.526 81.6792 126.147C81.5416 126.07 81.4048 125.991 81.2672 125.914ZM74.7345 90.2515H74.719V84.5017C74.719 83.9579 74.9771 83.5694 75.3961 83.3363L107.054 65.0003C107.473 64.7673 107.989 64.7673 108.408 65.0003L140.065 83.3363C140.484 83.5694 140.742 83.9579 140.742 84.5017V90.4845H140.727C140.732 92.4269 140.735 94.4467 140.738 96.3891H140.742V121.252C140.742 121.718 140.482 122.184 140.059 122.417L137.651 123.816C137.433 123.972 137.205 124.127 136.968 124.282C130.467 128.012 123.953 131.819 117.434 135.548C117.174 135.47 116.893 135.315 116.583 135.16C114.312 134.15 111.05 133.14 110.913 132.984C110.423 132.518 110.117 130.498 110.816 128.167C111.002 127.545 111.257 126.924 111.596 126.302C111.622 126.224 111.648 126.147 111.675 126.147C111.69 126.07 111.706 126.069 111.72 126.069C111.961 125.603 112.23 125.215 112.531 124.826C112.56 124.826 112.59 124.748 112.619 124.748C112.663 124.67 112.707 124.671 112.751 124.593C112.824 124.516 112.899 124.437 112.975 124.36C112.98 124.36 112.984 124.36 112.988 124.36C113.355 123.971 113.77 123.583 114.235 123.194C114.647 123.039 115.161 122.883 115.675 122.806C117.426 122.806 119.175 123.35 120.926 123.505C121.132 123.505 121.338 123.661 121.543 123.738C122.162 123.816 122.882 123.816 123.5 123.661C124.221 123.428 125.044 123.039 125.353 122.107C125.601 121.33 125.868 120.553 125.456 119.853C124.838 118.921 126.074 118.611 126.485 117.989C126.794 117.445 126.279 117.134 126.177 116.668C126.074 116.435 125.661 116.512 125.456 116.202C126.177 115.891 127.309 115.269 126.794 114.415C126.485 113.871 125.971 113.017 126.589 112.55C127.308 112.084 128.442 112.239 128.75 111.462C129.265 110.297 128.133 109.209 127.515 108.199C127.206 107.577 126.794 107.189 126.383 106.568C125.971 105.868 125.456 105.247 125.25 104.392C124.94 103.615 125.353 102.838 125.353 102.061C125.456 100.508 125.044 98.9537 124.633 97.3997C124.324 96.7005 124.221 95.8455 123.911 95.1462C123.809 94.7578 123.706 94.2919 123.397 93.9034C123.294 93.6703 123.294 93.3592 123.397 93.2038C123.809 92.8931 124.221 92.5824 124.633 92.1939C124.94 91.6501 124.735 90.9508 124.221 90.64C123.5 90.3292 123.603 91.3394 123.088 91.5725H122.779C122.677 91.2617 122.882 91.1057 123.088 90.9504C123.088 90.795 123.088 90.64 122.984 90.64C122.573 90.64 122.162 90.4843 122.059 90.3289C121.028 88.8527 119.588 88.1538 118.044 87.5322C118.455 87.6099 118.867 87.7651 119.279 87.7651C119.999 87.8428 120.823 87.843 121.441 87.5322C121.956 87.2991 122.059 86.5221 122.265 85.9783C122.471 85.5898 122.162 84.9681 121.956 84.6573C121.482 83.8803 120.748 83.4145 119.993 83.026C119.606 82.7929 118.989 82.4821 118.514 82.249C118.392 82.1713 118.295 82.0935 118.218 82.0935C118.211 82.0158 118.202 82.0153 118.192 82.0153C117.333 81.5491 112.287 80.1511 107.329 80.1511C102.37 80.1511 96.7861 82.1709 96.7861 82.1709H96.7877C96.2738 82.3263 95.4909 82.6375 94.6606 83.026C93.671 83.4145 92.305 84.0357 91.4825 85.0458C90.6592 86.0558 89.8352 87.1434 89.5265 88.3865C88.1878 89.1635 87.3653 90.4068 86.6438 91.6499C85.7172 93.3592 84.3792 94.9133 84.5845 96.8557C84.7913 98.565 85.2033 100.041 85.5119 101.828C85.6145 102.449 85.7172 102.994 85.9232 103.615C86.1292 104.159 85.9232 104.936 86.2318 105.402C86.4379 105.713 86.3352 106.179 86.7472 106.335V106.801C86.8499 106.878 86.8499 106.956 87.0559 106.956V107.422C87.8792 108.432 88.9093 109.365 89.4239 110.453C89.6299 111.074 88.3938 110.763 87.8792 110.608C86.8499 110.064 86.2318 109.209 85.4085 108.51C85.4085 108.51 85.3059 108.588 85.3059 108.743C85.7172 109.442 87.2619 110.375 86.4378 110.918C86.0258 111.074 85.512 110.608 85.0999 110.997C84.9973 111.152 85.0999 111.385 85.0999 111.618C84.4819 111.152 83.8645 111.384 83.2473 111.151C82.8352 111.074 82.7319 110.297 82.2164 110.297C80.8785 109.986 79.6431 109.675 78.3052 109.52C77.0862 109.442 75.9116 109.209 74.7221 109.209C74.7151 102.916 74.719 96.5449 74.7345 90.2515ZM88.554 130.109C87.0295 129.255 85.5057 128.322 83.9828 127.467C84.2447 127.467 84.5137 127.39 84.7913 127.313C85.4264 127.235 86.0258 126.846 86.6438 126.613V126.846C88.1878 126.224 89.3213 124.904 90.8652 124.36C90.9679 124.36 91.1739 124.593 91.3799 124.438C92.3066 123.661 93.3359 122.728 94.6746 122.884C94.6746 123.039 94.6747 123.117 94.7773 123.117C94.8006 123.117 94.8254 123.117 94.8472 123.117C94.4811 123.428 94.1149 123.66 93.7472 123.971C93.6446 124.049 93.7472 124.127 93.8506 124.127C94.3652 123.971 94.6746 123.505 95.1893 123.35C95.0859 123.427 95.0859 123.661 94.9833 123.738C94.6241 123.971 94.2494 124.282 93.863 124.671C92.595 125.758 91.5237 126.924 90.4291 128.167H90.4423C89.8554 128.789 89.2653 129.41 88.6807 129.954C88.641 130.032 88.5991 130.032 88.554 130.109ZM74.7244 110.763C74.7244 110.685 74.7244 110.53 74.7236 110.453C75.8439 110.219 76.9199 109.986 77.9958 110.064C78.3052 110.064 78.7172 109.986 79.0259 110.064C77.5107 109.986 76.1331 110.374 74.7244 110.763ZM121.584 102.76C120.976 102.605 120.452 102.76 119.834 102.76C119.011 102.993 118.29 103.071 117.57 103.382C118.187 102.993 118.805 102.605 119.526 102.372C120.04 102.294 120.555 101.983 121.07 101.983C121.687 101.828 122.305 101.672 122.82 101.828C123.335 102.061 124.158 102.061 124.262 102.372C124.467 102.993 123.952 103.615 123.335 104.004C123.232 104.237 123.643 104.314 123.643 104.547C123.54 104.703 123.233 104.858 123.026 104.858C122.82 104.936 122.614 105.247 122.408 105.48C122.614 105.48 122.408 105.791 122.614 105.791C122.202 106.257 122.82 107.267 122.202 107.5C121.482 107.733 120.658 107.733 119.834 107.5C120.246 107.423 120.761 107.578 121.07 107.189V106.801C121.07 106.723 120.967 106.723 120.864 106.723C120.761 106.801 120.658 106.801 120.658 106.801C120.658 106.568 120.452 106.412 120.349 106.412C119.731 106.49 119.217 106.179 118.805 105.791C119.113 105.635 119.422 105.558 119.731 105.635C120.04 105.635 119.937 105.169 120.246 104.936H120.555C121.172 104.081 122.408 103.926 122.614 103.071C122.614 102.916 121.996 102.916 121.584 102.76Z"
          fill="#000091"/>
    <path fill-rule="evenodd" clip-rule="evenodd"
          d="M32.7783 64.8889L65.5567 83.8006V121.624L32.7783 140.535L0 121.624V83.8006L32.7783 64.8889ZM32.7783 69.3044L3.82713 86.0083V119.416L32.7783 136.12L61.7322 119.416V86.0083L32.7783 69.3044Z"
          fill="#000091"/>
    <path fill-rule="evenodd" clip-rule="evenodd"
          d="M69.9815 0L102.76 18.9118V56.7348L69.9815 75.6465L37.2031 56.7348V18.9118L69.9815 0ZM69.9815 4.41552L41.0303 21.1194V54.5271L69.9815 71.231L98.9353 54.5271V21.1194L69.9815 4.41552Z"
          fill="#000091"/>
    <path fill-rule="evenodd" clip-rule="evenodd"
          d="M145.103 0L177.881 18.9118V56.7348L145.103 75.6465L112.324 56.7348V18.9118L145.103 0ZM145.103 4.41552L116.151 21.1194V54.5271L145.103 71.231L174.056 54.5271V21.1194L145.103 4.41552Z"
          fill="#000091"/>
    <path fill-rule="evenodd" clip-rule="evenodd"
          d="M182.987 64.8889L215.766 83.8006V121.624L182.987 140.535L150.209 121.624V83.8006L182.987 64.8889ZM182.987 69.3044L154.036 86.0083V119.416L182.987 136.12L211.941 119.416V86.0083L182.987 69.3044Z"
          fill="#000091"/>
</svg>