<svg
  width="60"
  height="60"
  viewBox="0 0 60 60"
  fill="none"
  xmlns="http://www.w3.org/2000/svg"
>
  <rect
    opacity="0.1"
    x="1"
    y="1"
    width="58"
    height="58"
    rx="1"
    fill="white"
    stroke="#000091"
    stroke-width="2"
  />
  <path
    fill-rule="evenodd"
    clip-rule="evenodd"
    d="M29.4103 24.6079L34.1507 27.3446V32.8178L29.4103 35.5544L24.6699 32.8178V27.3446L29.4103 24.6079Z"
    fill="#000091"
  />
  <path
    fill-rule="evenodd"
    clip-rule="evenodd"
    d="M34.7463 15L39.4867 17.7367V23.2099L34.7463 25.9465L30.0059 23.2099V17.7367L34.7463 15Z"
    fill="#000091"
  />
  <path
    fill-rule="evenodd"
    clip-rule="evenodd"
    d="M34.7463 34.0537L39.4867 36.7904V42.2636L34.7463 45.0002L30.0059 42.2636V36.7904L34.7463 34.0537Z"
    fill="#000091"
  />
  <path
    fill-rule="evenodd"
    clip-rule="evenodd"
    d="M18.7404 24.6079L23.4808 27.3446V32.8178L18.7404 35.5544L14 32.8178V27.3446L18.7404 24.6079Z"
    fill="#000091"
  />
  <path
    fill-rule="evenodd"
    clip-rule="evenodd"
    d="M24.0744 15L28.8148 17.7367V23.2099L24.0744 25.9465L19.334 23.2099V17.7367L24.0744 15Z"
    fill="#000091"
  />
  <path
    fill-rule="evenodd"
    clip-rule="evenodd"
    d="M24.0744 34.0537L28.8148 36.7904V42.2636L24.0744 45.0002L19.334 42.2636V36.7904L24.0744 34.0537Z"
    fill="#000091"
  />
  <path
    fill-rule="evenodd"
    clip-rule="evenodd"
    d="M40.2717 24.6079L45.0121 27.3446V32.8178L40.2717 35.5544L35.5312 32.8178V27.3446L40.2717 24.6079Z"
    fill="#000091"
  />
</svg>
