<svg viewBox="0 0 48 48" fill="none" xmlns="http://www.w3.org/2000/svg">
  <g clip-path="url(#clip0_179_19260)">
    <path
      d="M12.6406 26.02C14.5606 26.06 16.3406 27.02 17.5406 28.7C19.0006 30.76 21.4206 32 24.0006 32C26.5806 32 29.0006 30.76 30.4606 28.68C31.6606 27 33.4406 26.04 35.3606 26C33.9206 23.56 28.1606 22 24.0006 22C19.8606 22 14.0806 23.56 12.6406 26.02Z"
      fill="currentColor"
    />
    <path
      d="M8 26C11.32 26 14 23.32 14 20C14 16.68 11.32 14 8 14C4.68 14 2 16.68 2 20C2 23.32 4.68 26 8 26Z"
      fill="currentColor"
    />
    <path
      d="M40 26C43.32 26 46 23.32 46 20C46 16.68 43.32 14 40 14C36.68 14 34 16.68 34 20C34 23.32 36.68 26 40 26Z"
      fill="currentColor"
    />
    <path
      d="M24 20C27.32 20 30 17.32 30 14C30 10.68 27.32 8 24 8C20.68 8 18 10.68 18 14C18 17.32 20.68 20 24 20Z"
      fill="currentColor"
    />
    <path
      d="M42 28H35.46C33.92 28 32.76 28.9 32.1 29.84C32.02 29.96 29.38 34 24 34C21.14 34 17.94 32.72 15.9 29.84C15.12 28.74 13.9 28 12.54 28H6C3.8 28 2 29.8 2 32V40H16V35.48C18.3 37.08 21.08 38 24 38C26.92 38 29.7 37.08 32 35.48V40H46V32C46 29.8 44.2 28 42 28Z"
      fill="currentColor"
    />
  </g>
  <defs>
    <clipPath id="clip0_179_19260">
      <rect width="48" height="48" fill="white" />
    </clipPath>
  </defs>
</svg>
