<svg viewBox="0 0 32 22" fill="none" xmlns="http://www.w3.org/2000/svg">
  <path
    fill-rule="evenodd"
    clip-rule="evenodd"
    d="M31.18 16.614L30.0638 17.6339H29.7758L30.4359 16.47H31.18V16.614ZM30.3759 20.5614H30.1359C29.8358 20.9213 29.4998 21.2093 29.1757 21.2093C28.8397 21.2093 28.6717 21.0053 28.6717 20.5614C28.6717 20.3814 28.6957 20.1894 28.7317 20.0214L30.688 19.3734C31.072 18.4615 30.6159 18.0655 30.0759 18.0655C29.1517 18.0655 28.0956 19.6854 28.0956 20.9813C28.0956 21.5933 28.3836 21.9293 28.8397 21.9293C29.3678 21.9173 29.9198 21.4013 30.3759 20.5614ZM29.7046 18.5938C29.9686 18.5938 30.1966 18.7978 30.0766 19.2657L28.8644 19.5897C29.0565 19.0138 29.4165 18.5938 29.7046 18.5938ZM25.8886 18.6175H26.5367L25.5045 21.4493C25.4085 21.6893 25.5405 21.9293 25.7925 21.9293C26.5247 21.9293 27.4008 21.3053 27.7368 20.4174H27.5568C27.2928 20.7894 26.7167 21.1973 26.2846 21.2693L27.2328 18.6175H28.2049L28.3249 18.2095H27.3768L27.7368 17.1896H27.3648L26.6927 18.2095L25.8886 18.3175V18.6175ZM24.9878 18.0782C25.1198 18.0782 25.2998 18.2222 25.2158 18.4862L24.0516 21.306C24.3517 21.258 24.6637 20.97 24.8438 20.706H25.0358C24.7597 21.414 24.1356 21.93 23.5956 21.93C23.4636 21.93 23.2715 21.786 23.3675 21.522L24.4477 18.7022C24.1477 18.7502 23.8356 19.0381 23.6556 19.3021H23.4756C23.7516 18.5822 24.4237 18.0782 24.9878 18.0782ZM25.3246 17.3579C25.5647 17.3579 25.7687 17.1659 25.7687 16.9139C25.7687 16.674 25.5647 16.47 25.3246 16.47C25.0726 16.47 24.8806 16.674 24.8806 16.9139C24.8806 17.1539 25.0846 17.3579 25.3246 17.3579ZM20.0797 19.6981C20.3437 19.1221 20.2477 18.8581 20.0797 18.8581C19.9357 18.8581 19.7676 19.0141 19.5996 19.3021H19.4196C19.6956 18.6902 20.0557 18.0782 20.4517 18.0782C20.7878 18.0782 20.9078 18.4142 20.9078 18.7862V19.3141C20.9618 19.2513 21.0144 19.1896 21.0658 19.1293L21.0667 19.1282L21.0675 19.1273C21.5745 18.5324 21.9617 18.0782 22.408 18.0782C22.7561 18.0782 22.9361 18.2942 22.9361 18.6182C22.9361 18.8102 22.8761 19.0501 22.7441 19.3021L21.7479 21.306C22.048 21.258 22.36 20.97 22.54 20.706H22.7201C22.444 21.426 21.7719 21.93 21.2079 21.93C20.9558 21.93 20.8118 21.666 20.9198 21.45L22.072 19.2301C22.204 18.9781 22.228 18.8102 22.024 18.8102C21.7479 18.8102 21.0998 19.2661 20.7518 19.6861L19.9957 21.678C19.9117 21.882 19.8277 21.93 19.6356 21.93C19.3236 21.93 19.1676 21.726 19.3116 21.402L20.0797 19.6981ZM19.2987 18.9294C19.4307 18.4735 19.3587 18.0655 19.0106 18.0655C18.5766 18.0655 18.4407 18.3521 18.02 19.2391L17.9905 19.3014V18.7735C17.9905 18.4015 17.8705 18.0655 17.5344 18.0655C17.1384 18.0655 16.7783 18.6775 16.5023 19.2894H16.6823C16.8743 19.0134 17.0544 18.8455 17.1984 18.8455C17.3664 18.8455 17.4624 19.1094 17.1984 19.6854L16.4303 21.3893C16.2863 21.7133 16.4423 21.9173 16.7543 21.9173C16.9464 21.9173 17.0304 21.8693 17.1144 21.6653L17.8705 19.6734C18.0865 19.4094 18.2785 19.1814 18.5186 18.9294H19.2987ZM15.5064 19.2657C15.6264 18.7978 15.3984 18.5938 15.1344 18.5938C14.8463 18.5938 14.4863 19.0138 14.2942 19.5897L15.5064 19.2657ZM15.8057 20.5614H15.5657C15.2656 20.9213 14.9296 21.2093 14.6055 21.2093C14.2695 21.2093 14.1015 21.0053 14.1015 20.5614C14.1015 20.3814 14.1255 20.1894 14.1615 20.0214L16.1178 19.3734C16.5018 18.4615 16.0458 18.0655 15.5057 18.0655C14.5815 18.0655 13.5254 19.6854 13.5254 20.9813C13.5254 21.5933 13.8134 21.9293 14.2695 21.9293C14.7976 21.9173 15.3497 21.4013 15.8057 20.5614ZM11.9665 18.6175H11.3184V18.3175L12.1225 18.2095L12.7946 17.1896H13.1666L12.8066 18.2095H13.7547L13.6347 18.6175H12.6626L11.7144 21.2693C12.1465 21.1973 12.7226 20.7894 12.9866 20.4174H13.1666C12.8306 21.3053 11.9545 21.9293 11.2224 21.9293C10.9703 21.9293 10.8383 21.6893 10.9343 21.4493L11.9665 18.6175ZM7.88648 20.8136C7.88648 19.9377 8.85862 18.7617 9.3987 18.7617C9.51871 18.7617 9.63873 18.7737 9.73475 18.8097L9.17066 20.3217C8.84662 20.7176 8.34254 21.1976 8.10251 21.1976C7.97049 21.1976 7.88648 21.0776 7.88648 20.8136ZM10.5632 17.8858L10.8632 17.9098L9.81906 20.3097C9.56702 20.8856 9.67504 21.1496 9.81906 21.1496C9.96308 21.1496 10.1431 20.9816 10.3351 20.7057H10.5152C10.2391 21.3176 9.87907 21.9296 9.48301 21.9296C9.14696 21.9296 8.94293 21.5696 9.00294 20.9216L9.02694 20.6937L8.96158 20.7849C8.53167 21.3858 8.14265 21.9296 7.74276 21.9296C7.39471 21.9296 7.21468 21.7136 7.21468 21.3896C7.21468 19.9977 8.7389 18.2218 10.1671 18.2218H10.2271L10.5632 17.8858ZM7.81402 18.9294C7.94604 18.4735 7.87403 18.0655 7.52598 18.0655C7.09192 18.0655 6.956 18.3521 6.53537 19.2391L6.50583 19.3014V18.7735C6.50583 18.4015 6.38581 18.0655 6.04976 18.0655C5.65371 18.0655 5.29365 18.6775 5.01761 19.2894H5.19764C5.38967 19.0134 5.56969 18.8455 5.70171 18.8455C5.86974 18.8455 5.96575 19.1094 5.70171 19.6854L4.9336 21.4013C4.78958 21.7253 4.9456 21.9293 5.25765 21.9293C5.44968 21.9293 5.53369 21.8813 5.6177 21.6773L6.37381 19.6854C6.58984 19.4214 6.78187 19.1934 7.0219 18.9414H7.81402V18.9294ZM2.86842 21.5686L2.79641 21.7846H0L0.0720104 21.5566C0.936136 21.4006 1.08016 21.3286 1.44021 20.3566L2.22032 18.2688C2.56837 17.2968 2.49636 17.2248 1.74025 17.0688L1.81226 16.8528H5.44879L5.23276 18.0168H4.96872C4.96872 17.3208 4.89671 17.1408 4.23661 17.1408H4.06859C3.4205 17.1408 3.33648 17.2368 3.15646 17.7408L2.64038 19.1447H3.39649C3.90056 19.1447 4.09259 18.8327 4.32063 18.4247H4.58466L3.96057 20.1286H3.69654C3.75654 19.6127 3.75654 19.4087 3.28848 19.4087H2.53237L2.18432 20.3686C1.80809 21.3678 1.9156 21.3882 2.81149 21.5578C2.83013 21.5613 2.8491 21.5649 2.86842 21.5686Z"
    fill="black"
  />
  <path
    fill-rule="evenodd"
    clip-rule="evenodd"
    d="M5.24476 7.43411L4.12857 8.23851V8.25051H3.84052L4.50063 7.29004H5.24476V7.43411ZM13.0472 13.0648L14.8355 8.31045L14.7755 8.23842L13.5393 8.38249V8.52656L13.7793 8.70665C13.9843 8.86609 13.93 9.01473 13.76 9.48049L13.7313 9.55907L12.3631 13.2089C12.2551 13.425 12.3991 13.6891 12.6511 13.6891C13.2152 13.6891 13.8153 13.1728 14.0914 12.4645H13.9114C13.7193 12.7286 13.3353 13.0168 13.0472 13.0648ZM21.2438 9.40299L22.36 8.38249V8.23842H21.6159L20.9558 9.40299H21.2438ZM21.315 12.3204H21.5551C21.111 13.1728 20.5589 13.6891 20.0308 13.6891C19.5747 13.6891 19.2867 13.3529 19.2867 12.7406C19.2867 11.444 20.3429 9.82318 21.267 9.82318C21.7951 9.82318 22.2632 10.2194 21.8791 11.1318L19.9108 11.7801C19.8748 11.9482 19.8508 12.1403 19.8508 12.3204C19.8508 12.7646 20.0188 12.9687 20.3549 12.9687C20.6789 12.9687 21.015 12.6806 21.315 12.3204ZM21.2544 11.0238C21.3745 10.5676 21.1464 10.3635 20.8824 10.3635C20.6063 10.3635 20.2463 10.7837 20.0422 11.348L21.2544 11.0238ZM17.7258 10.3872H17.0777V10.0871L17.8818 9.979L18.554 8.9585H18.926L18.566 9.979H19.5141L19.3941 10.3872H18.4219L17.4738 13.0405C17.9058 12.9685 18.4819 12.5603 18.746 12.1881H18.926C18.59 13.0765 17.7138 13.7008 16.9817 13.7008C16.7296 13.7008 16.5976 13.4607 16.6936 13.2206L17.7258 10.3872ZM16.4055 10.2431C16.4775 9.97898 16.3095 9.83491 16.1655 9.83491C15.6014 9.83491 14.9292 10.3512 14.6532 11.0595H14.8332C15.0133 10.7954 15.3253 10.5072 15.6254 10.4592L14.5452 13.2806C14.4492 13.5447 14.6412 13.6888 14.7732 13.6888C15.3133 13.6888 15.9374 13.1726 16.2135 12.4642H16.0334C15.8534 12.7283 15.5413 13.0165 15.2413 13.0645L16.4055 10.2431ZM16.9585 8.68264C16.9585 8.92276 16.7544 9.12686 16.5144 9.12686C16.2744 9.12686 16.0703 8.92276 16.0703 8.68264C16.0703 8.44252 16.2624 8.23842 16.5144 8.23842C16.7544 8.23842 16.9585 8.44252 16.9585 8.68264ZM10.8987 10.5315C10.3586 10.5315 9.38641 11.7081 9.38641 12.5846C9.38641 12.8487 9.47043 12.9687 9.61445 12.9687C9.84249 12.9687 10.3466 12.4885 10.6706 12.0923L11.2347 10.5796C11.1267 10.5435 11.0187 10.5315 10.8987 10.5315ZM12.3632 9.67914L12.0632 9.65513L11.7271 9.9913H11.6671C10.2389 9.9913 8.71459 11.7682 8.71459 13.1609C8.71459 13.485 8.89463 13.7011 9.24269 13.7011C9.64259 13.7011 10.0316 13.1571 10.4616 12.5558L10.5269 12.4645L10.5029 12.6926C10.4429 13.3409 10.6469 13.7011 10.983 13.7011C11.3791 13.7011 11.7391 13.0888 12.0152 12.4765H11.8351C11.6431 12.7527 11.4631 12.9207 11.3191 12.9207C11.175 12.9207 11.067 12.6566 11.3191 12.0803L12.3632 9.67914ZM6.3135 13.5692C5.79741 13.7733 5.43734 14.0134 5.43734 14.3856C5.43734 14.7337 5.7614 14.8778 6.43352 14.8778C7.33368 14.8778 7.82576 14.6137 7.82576 14.2655C7.82576 14.1094 7.62173 14.0374 7.08163 13.8573C6.73357 13.7493 6.48153 13.6532 6.3135 13.5692ZM6.91282 12.0924C6.67277 12.0924 6.58876 11.8883 6.58876 11.6722C6.58876 10.9758 6.92482 10.1114 7.46491 10.1114C7.70495 10.1114 7.78897 10.3155 7.78897 10.5316C7.77697 11.24 7.44091 12.0924 6.91282 12.0924ZM7.3701 13.2209C8.03022 13.425 8.43829 13.581 8.43829 14.0373C8.43829 14.6255 7.3581 15.3219 6.04987 15.3099C5.29374 15.3099 4.64563 15.1058 4.64563 14.6135C4.64563 14.1453 5.0777 13.7611 6.13389 13.449C5.98986 13.3529 5.92985 13.2329 5.92985 13.0648C5.92985 12.7766 6.1939 12.5485 6.64998 12.3324C6.2059 12.2724 5.91785 11.9362 5.91785 11.444C5.91785 10.6876 6.54196 9.82318 7.52613 9.82318C7.73017 9.82318 7.9102 9.87121 8.05422 9.96725H9.13441L9.01439 10.3755H8.37828C8.41429 10.4835 8.43829 10.6036 8.43829 10.7356C8.43829 11.468 7.85019 12.3084 6.91402 12.3564C6.67398 12.4885 6.55396 12.6686 6.55396 12.8127C6.55396 12.9822 6.75029 13.0395 7.1842 13.1662C7.24193 13.183 7.30387 13.2011 7.3701 13.2209ZM3.56462 11.1679C4.03271 11.1679 4.04471 11.372 3.9727 11.8883H4.23674L4.86085 10.1834H4.59681C4.36877 10.5916 4.17673 10.9038 3.67264 10.9038H2.64046L3.14455 9.49911C3.32458 8.99486 3.4086 8.89881 4.05671 8.89881H4.51279C5.17291 8.89881 5.24492 9.0789 5.24492 9.77525H5.50897L5.725 8.61067H1.81232L1.7403 8.82678C2.49644 8.98286 2.56845 9.05489 2.22039 10.0274L1.44025 12.1284C1.08019 13.1009 0.936164 13.1729 0.0600105 13.329L0 13.5571H4.34476L5.1249 12.3205H4.82484C4.32076 12.8127 3.81667 13.269 2.8325 13.269C1.74998 13.269 1.76926 13.216 2.09407 12.3234C2.11497 12.266 2.13715 12.205 2.16038 12.1404L2.52044 11.1799H3.56462V11.1679Z"
    fill="black"
  />
  <path
    fill-rule="evenodd"
    clip-rule="evenodd"
    d="M7.14964 0.887607C7.3896 0.887607 7.59356 0.683697 7.59356 0.443803C7.59356 0.20391 7.3896 0 7.14964 0C6.89769 0 6.70573 0.20391 6.70573 0.443803C6.70573 0.695692 6.89769 0.887607 7.14964 0.887607ZM10.7022 2.39862C10.7022 1.82288 10.5583 1.60697 10.1503 1.60697C9.64644 1.60697 9.17853 2.14673 8.71062 2.79445L9.71843 0.0956425L9.65844 0.0116797L8.42268 0.155616V0.299552L8.66263 0.479472C8.87155 0.641926 8.81099 0.804379 8.63302 1.28177L8.61464 1.3311L7.52285 4.18583C7.42687 4.42572 7.31889 4.7136 7.31889 4.78556C7.31889 5.12142 7.7748 5.44527 8.19472 5.44527C9.13054 5.45727 10.7022 3.73003 10.7022 2.39862ZM21.1042 1.17516L22.22 0.155616V0.0116797H21.4761L20.8163 1.17516H21.1042ZM21.1765 4.08989H21.4164C20.9605 4.94151 20.4086 5.45729 19.8807 5.44529C19.4248 5.44529 19.1369 5.12143 19.1369 4.50971C19.1369 3.21428 20.1927 1.595 21.1165 1.595C21.6444 1.595 22.1123 1.99082 21.7284 2.90242L19.7727 3.55013C19.7368 3.71806 19.7128 3.90997 19.7128 4.08989C19.7128 4.53369 19.8807 4.73761 20.2167 4.73761C20.5406 4.73761 20.8765 4.44973 21.1765 4.08989ZM21.1153 2.7945C21.2353 2.33871 21.0073 2.1348 20.7434 2.1348C20.4555 2.1348 20.0955 2.55461 19.9036 3.11836L21.1153 2.7945ZM17.5747 2.15947H16.9268V1.8596L17.7306 1.75165L18.4025 0.732098H18.7744L18.4145 1.75165H19.3623L19.2423 2.15947H18.2705L17.3227 4.81029C17.7546 4.73832 18.3305 4.3305 18.5945 3.95867H18.7744C18.4385 4.84628 17.5627 5.47 16.8308 5.47C16.5789 5.47 16.4469 5.23011 16.5429 4.99021L17.5747 2.15947ZM16.5931 2.4713C16.7251 2.01551 16.6531 1.60769 16.3052 1.60769C15.8713 1.60769 15.7354 1.8942 15.3149 2.78089L15.2854 2.84314V2.31537C15.2854 1.94354 15.1654 1.60769 14.8295 1.60769C14.4336 1.60769 14.0736 2.21942 13.7977 2.83114H13.9776C14.1696 2.55527 14.3496 2.38734 14.4815 2.38734C14.6495 2.38734 14.7455 2.65122 14.4815 3.22697L13.7137 4.93021C13.5697 5.25407 13.7257 5.45798 14.0376 5.45798C14.2296 5.45798 14.3136 5.41 14.3976 5.20609L15.1534 3.21497C15.3694 2.95109 15.5613 2.72319 15.8013 2.4713H16.5931ZM12.7902 2.7945C12.9101 2.33871 12.6822 2.1348 12.4182 2.1348C12.1303 2.1348 11.7823 2.55461 11.5784 3.11836L12.7902 2.7945ZM13.0893 4.08989H12.8494C12.5495 4.44973 12.2135 4.73761 11.8896 4.73761C11.5536 4.73761 11.3857 4.53369 11.3857 4.08989C11.3857 3.90997 11.4097 3.71806 11.4457 3.55013L13.4013 2.90242C13.7852 1.99082 13.3293 1.595 12.7894 1.595C11.8656 1.595 10.8098 3.21428 10.8098 4.50971C10.8098 5.12143 11.0977 5.44529 11.5536 5.44529C12.0815 5.45729 12.6334 4.94151 13.0893 4.08989ZM8.05122 4.54611C8.05122 4.70204 8.32717 4.88196 8.51913 4.88196C9.29898 4.88196 10.0308 3.47858 10.0188 2.69893C10.0188 2.43505 9.88686 2.32709 9.7069 2.32709C9.41896 2.32709 8.89106 2.7589 8.55512 3.16672L8.24318 4.00635C8.13521 4.28223 8.05122 4.49813 8.05122 4.54611ZM6.79168 1.60769C6.93565 1.60769 7.10362 1.75162 7.03163 2.01551L5.87986 4.83426C6.1798 4.78628 6.49174 4.49841 6.6717 4.23452H6.85167C6.57572 4.94221 5.95184 5.45798 5.41195 5.45798C5.26798 5.45798 5.07601 5.31404 5.172 5.05016L6.25179 2.23141C5.95184 2.27939 5.63991 2.56726 5.45994 2.83114H5.27997C5.55592 2.12346 6.22779 1.60769 6.79168 1.60769ZM1.81165 0.360192H4.39115L4.31916 0.588091C3.44333 0.744022 3.29936 0.81599 2.93943 1.78756L2.17158 3.89862C1.79965 4.90618 1.89563 5.02613 2.5555 5.02613C3.37077 5.02613 3.90535 4.43372 4.37213 3.91644C4.40681 3.87801 4.44111 3.83999 4.47513 3.80267H4.77507L3.92324 5.314H0L0.071986 5.09809C0.935818 4.94216 1.07979 4.87019 1.43972 3.89862L2.21957 1.77557C2.5675 0.803995 2.49552 0.732027 1.73966 0.576096L1.81165 0.360192Z"
    fill="black"
  />
</svg>
