<svg
  width="56"
  height="38"
  viewBox="0 0 56 38"
  fill="none"
  xmlns="http://www.w3.org/2000/svg"
>
  <path
    d="M1.236 11V2.6H2.94V11H1.236ZM5.46788 11V2.6H7.65188L11.4079 8.672V2.6H13.1119V11H10.9279L7.17188 4.928V11H5.46788ZM14.7772 4.148V2.6H21.6652V4.148H19.0732V11H17.3692V4.148H14.7772ZM23.3418 11V2.6H25.0458V11H23.3418ZM26.7097 4.148V2.6H33.5977V4.148H31.0057V11H29.3017V4.148H26.7097ZM40.228 7.856V2.6H41.932V7.712C41.932 9.92 40.636 11.24 38.524 11.24C36.424 11.24 35.128 9.92 35.128 7.712V2.6H36.832V7.856C36.832 8.984 37.468 9.644 38.536 9.644C39.58 9.644 40.228 8.984 40.228 7.856ZM44.2288 11V2.6H45.9328V9.452H49.1248V11H44.2288ZM54.0084 1.88H52.4604L53.8164 0.26H55.5684L54.0084 1.88ZM50.8044 11V2.6H55.7004V4.016H52.5084V6.008H55.2204V7.424H52.5084V9.584H55.7004V11H50.8044Z"
    fill="black"
  />
  <path
    fill-rule="evenodd"
    clip-rule="evenodd"
    d="M31.18 32.6142L30.0638 33.6341H29.7758L30.4359 32.4702H31.18V32.6142ZM30.3759 36.5616H30.1359C29.8358 36.9216 29.4998 37.2096 29.1757 37.2096C28.8397 37.2096 28.6717 37.0056 28.6717 36.5616C28.6717 36.3816 28.6957 36.1896 28.7317 36.0216L30.688 35.3737C31.072 34.4617 30.6159 34.0657 30.0759 34.0657C29.1517 34.0657 28.0956 35.6856 28.0956 36.9816C28.0956 37.5935 28.3836 37.9295 28.8397 37.9295C29.3678 37.9175 29.9198 37.4016 30.3759 36.5616ZM29.7046 34.594C29.9686 34.594 30.1966 34.798 30.0766 35.266L28.8644 35.59C29.0565 35.014 29.4165 34.594 29.7046 34.594ZM25.8886 34.6177H26.5367L25.5045 37.4496C25.4085 37.6896 25.5405 37.9295 25.7925 37.9295C26.5247 37.9295 27.4008 37.3056 27.7368 36.4176H27.5568C27.2928 36.7896 26.7167 37.1976 26.2846 37.2696L27.2328 34.6177H28.2049L28.3249 34.2098H27.3768L27.7368 33.1898H27.3648L26.6927 34.2098L25.8886 34.3178V34.6177ZM24.9878 34.0784C25.1198 34.0784 25.2998 34.2224 25.2158 34.4864L24.0516 37.3063C24.3517 37.2583 24.6637 36.9703 24.8438 36.7063H25.0358C24.7597 37.4142 24.1356 37.9302 23.5956 37.9302C23.4636 37.9302 23.2715 37.7862 23.3675 37.5222L24.4477 34.7024C24.1477 34.7504 23.8356 35.0384 23.6556 35.3024H23.4756C23.7516 34.5824 24.4237 34.0784 24.9878 34.0784ZM25.3246 33.3582C25.5647 33.3582 25.7687 33.1662 25.7687 32.9142C25.7687 32.6742 25.5647 32.4702 25.3246 32.4702C25.0726 32.4702 24.8806 32.6742 24.8806 32.9142C24.8806 33.1542 25.0846 33.3582 25.3246 33.3582ZM20.0797 35.6983C20.3437 35.1224 20.2477 34.8584 20.0797 34.8584C19.9357 34.8584 19.7676 35.0144 19.5996 35.3024H19.4196C19.6956 34.6904 20.0557 34.0784 20.4517 34.0784C20.7878 34.0784 20.9078 34.4144 20.9078 34.7864V35.3144C20.9618 35.2515 21.0144 35.1898 21.0658 35.1296L21.0667 35.1285L21.0675 35.1276C21.5745 34.5326 21.9617 34.0784 22.408 34.0784C22.7561 34.0784 22.9361 34.2944 22.9361 34.6184C22.9361 34.8104 22.8761 35.0504 22.7441 35.3024L21.7479 37.3063C22.048 37.2583 22.36 36.9703 22.54 36.7063H22.7201C22.444 37.4262 21.7719 37.9302 21.2079 37.9302C20.9558 37.9302 20.8118 37.6662 20.9198 37.4502L22.072 35.2304C22.204 34.9784 22.228 34.8104 22.024 34.8104C21.7479 34.8104 21.0998 35.2664 20.7518 35.6863L19.9957 37.6782C19.9117 37.8822 19.8277 37.9302 19.6356 37.9302C19.3236 37.9302 19.1676 37.7262 19.3116 37.4022L20.0797 35.6983ZM19.2987 34.9297C19.4307 34.4737 19.3587 34.0657 19.0106 34.0657C18.5766 34.0657 18.4407 34.3524 18.02 35.2394L17.9905 35.3017V34.7737C17.9905 34.4017 17.8705 34.0657 17.5344 34.0657C17.1384 34.0657 16.7783 34.6777 16.5023 35.2897H16.6823C16.8743 35.0137 17.0544 34.8457 17.1984 34.8457C17.3664 34.8457 17.4624 35.1097 17.1984 35.6856L16.4303 37.3896C16.2863 37.7135 16.4423 37.9175 16.7543 37.9175C16.9464 37.9175 17.0304 37.8695 17.1144 37.6655L17.8705 35.6736C18.0865 35.4097 18.2785 35.1817 18.5186 34.9297H19.2987ZM15.5064 35.266C15.6264 34.798 15.3984 34.594 15.1344 34.594C14.8463 34.594 14.4863 35.014 14.2942 35.59L15.5064 35.266ZM15.8057 36.5616H15.5657C15.2656 36.9216 14.9296 37.2096 14.6055 37.2096C14.2695 37.2096 14.1015 37.0056 14.1015 36.5616C14.1015 36.3816 14.1255 36.1896 14.1615 36.0216L16.1178 35.3737C16.5018 34.4617 16.0458 34.0657 15.5057 34.0657C14.5815 34.0657 13.5254 35.6856 13.5254 36.9816C13.5254 37.5935 13.8134 37.9295 14.2695 37.9295C14.7976 37.9175 15.3497 37.4016 15.8057 36.5616ZM11.9665 34.6177H11.3184V34.3178L12.1225 34.2098L12.7946 33.1898H13.1666L12.8066 34.2098H13.7547L13.6347 34.6177H12.6626L11.7144 37.2696C12.1465 37.1976 12.7226 36.7896 12.9866 36.4176H13.1666C12.8306 37.3056 11.9545 37.9295 11.2224 37.9295C10.9703 37.9295 10.8383 37.6896 10.9343 37.4496L11.9665 34.6177ZM7.88648 36.8139C7.88648 35.9379 8.85862 34.762 9.3987 34.762C9.51871 34.762 9.63873 34.774 9.73475 34.81L9.17066 36.3219C8.84662 36.7179 8.34254 37.1979 8.10251 37.1979C7.97049 37.1979 7.88648 37.0779 7.88648 36.8139ZM10.5632 33.8861L10.8632 33.9101L9.81906 36.3099C9.56702 36.8859 9.67504 37.1499 9.81906 37.1499C9.96308 37.1499 10.1431 36.9819 10.3351 36.7059H10.5152C10.2391 37.3179 9.87907 37.9298 9.48301 37.9298C9.14696 37.9298 8.94293 37.5699 9.00294 36.9219L9.02694 36.6939L8.96158 36.7852C8.53167 37.3861 8.14265 37.9298 7.74276 37.9298C7.39471 37.9298 7.21468 37.7138 7.21468 37.3899C7.21468 35.9979 8.7389 34.222 10.1671 34.222H10.2271L10.5632 33.8861ZM7.81402 34.9297C7.94604 34.4737 7.87403 34.0657 7.52598 34.0657C7.09192 34.0657 6.956 34.3524 6.53537 35.2394L6.50583 35.3017V34.7737C6.50583 34.4017 6.38581 34.0657 6.04976 34.0657C5.65371 34.0657 5.29365 34.6777 5.01761 35.2897H5.19764C5.38967 35.0137 5.56969 34.8457 5.70171 34.8457C5.86974 34.8457 5.96575 35.1097 5.70171 35.6856L4.9336 37.4016C4.78958 37.7255 4.9456 37.9295 5.25765 37.9295C5.44968 37.9295 5.53369 37.8815 5.6177 37.6775L6.37381 35.6856C6.58984 35.4217 6.78187 35.1937 7.0219 34.9417H7.81402V34.9297ZM2.86842 37.5688L2.79641 37.7848H0L0.0720104 37.5568C0.936136 37.4008 1.08016 37.3288 1.44021 36.3569L2.22032 34.269C2.56837 33.2971 2.49636 33.2251 1.74025 33.0691L1.81226 32.8531H5.44879L5.23276 34.017H4.96872C4.96872 33.3211 4.89671 33.1411 4.23661 33.1411H4.06859C3.4205 33.1411 3.33648 33.2371 3.15646 33.741L2.64038 35.145H3.39649C3.90056 35.145 4.09259 34.833 4.32063 34.425H4.58466L3.96057 36.1289H3.69654C3.75654 35.6129 3.75654 35.4089 3.28848 35.4089H2.53237L2.18432 36.3689C1.80809 37.368 1.9156 37.3884 2.81149 37.558C2.83013 37.5616 2.8491 37.5651 2.86842 37.5688Z"
    fill="black"
  />
  <path
    fill-rule="evenodd"
    clip-rule="evenodd"
    d="M5.24476 23.4341L4.12857 24.2385V24.2505H3.84052L4.50063 23.29H5.24476V23.4341ZM13.0472 29.0648L14.8355 24.3105L14.7755 24.2384L13.5393 24.3825V24.5266L13.7793 24.7066C13.9843 24.8661 13.93 25.0147 13.76 25.4805L13.7313 25.5591L12.3631 29.2089C12.2551 29.425 12.3991 29.6891 12.6511 29.6891C13.2152 29.6891 13.8153 29.1728 14.0914 28.4645H13.9114C13.7193 28.7286 13.3353 29.0168 13.0472 29.0648ZM21.2438 25.403L22.36 24.3825V24.2384H21.6159L20.9558 25.403H21.2438ZM21.315 28.3204H21.5551C21.111 29.1728 20.5589 29.6891 20.0308 29.6891C19.5747 29.6891 19.2867 29.3529 19.2867 28.7406C19.2867 27.444 20.3429 25.8232 21.267 25.8232C21.7951 25.8232 22.2632 26.2194 21.8791 27.1318L19.9108 27.7801C19.8748 27.9482 19.8508 28.1403 19.8508 28.3204C19.8508 28.7646 20.0188 28.9687 20.3549 28.9687C20.6789 28.9687 21.015 28.6806 21.315 28.3204ZM21.2544 27.0238C21.3745 26.5676 21.1464 26.3635 20.8824 26.3635C20.6063 26.3635 20.2463 26.7837 20.0422 27.348L21.2544 27.0238ZM17.7258 26.3872H17.0777V26.0871L17.8818 25.979L18.554 24.9585H18.926L18.566 25.979H19.5141L19.3941 26.3872H18.4219L17.4738 29.0405C17.9058 28.9685 18.4819 28.5603 18.746 28.1881H18.926C18.59 29.0765 17.7138 29.7008 16.9817 29.7008C16.7296 29.7008 16.5976 29.4607 16.6936 29.2206L17.7258 26.3872ZM16.4055 26.2431C16.4775 25.979 16.3095 25.8349 16.1655 25.8349C15.6014 25.8349 14.9292 26.3512 14.6532 27.0595H14.8332C15.0133 26.7954 15.3253 26.5072 15.6254 26.4592L14.5452 29.2806C14.4492 29.5447 14.6412 29.6888 14.7732 29.6888C15.3133 29.6888 15.9374 29.1726 16.2135 28.4642H16.0334C15.8534 28.7283 15.5413 29.0165 15.2413 29.0645L16.4055 26.2431ZM16.9585 24.6826C16.9585 24.9228 16.7544 25.1269 16.5144 25.1269C16.2744 25.1269 16.0703 24.9228 16.0703 24.6826C16.0703 24.4425 16.2624 24.2384 16.5144 24.2384C16.7544 24.2384 16.9585 24.4425 16.9585 24.6826ZM10.8987 26.5315C10.3586 26.5315 9.38641 27.7081 9.38641 28.5846C9.38641 28.8487 9.47043 28.9687 9.61445 28.9687C9.84249 28.9687 10.3466 28.4885 10.6706 28.0923L11.2347 26.5796C11.1267 26.5435 11.0187 26.5315 10.8987 26.5315ZM12.3632 25.6791L12.0632 25.6551L11.7271 25.9913H11.6671C10.2389 25.9913 8.71459 27.7682 8.71459 29.1609C8.71459 29.485 8.89463 29.7011 9.24269 29.7011C9.64259 29.7011 10.0316 29.1571 10.4616 28.5558L10.5269 28.4645L10.5029 28.6926C10.4429 29.3409 10.6469 29.7011 10.983 29.7011C11.3791 29.7011 11.7391 29.0888 12.0152 28.4765H11.8351C11.6431 28.7527 11.4631 28.9207 11.3191 28.9207C11.175 28.9207 11.067 28.6566 11.3191 28.0803L12.3632 25.6791ZM6.3135 29.5692C5.79741 29.7733 5.43734 30.0134 5.43734 30.3856C5.43734 30.7337 5.7614 30.8778 6.43352 30.8778C7.33368 30.8778 7.82576 30.6137 7.82576 30.2655C7.82576 30.1094 7.62173 30.0374 7.08163 29.8573C6.73357 29.7493 6.48153 29.6532 6.3135 29.5692ZM6.91282 28.0924C6.67277 28.0924 6.58876 27.8883 6.58876 27.6722C6.58876 26.9758 6.92482 26.1114 7.46491 26.1114C7.70495 26.1114 7.78897 26.3155 7.78897 26.5316C7.77697 27.24 7.44091 28.0924 6.91282 28.0924ZM7.3701 29.2209C8.03022 29.425 8.43829 29.581 8.43829 30.0373C8.43829 30.6255 7.3581 31.3219 6.04987 31.3099C5.29374 31.3099 4.64563 31.1058 4.64563 30.6135C4.64563 30.1453 5.0777 29.7611 6.13389 29.449C5.98986 29.3529 5.92985 29.2329 5.92985 29.0648C5.92985 28.7766 6.1939 28.5485 6.64998 28.3324C6.2059 28.2724 5.91785 27.9362 5.91785 27.444C5.91785 26.6876 6.54196 25.8232 7.52613 25.8232C7.73017 25.8232 7.9102 25.8712 8.05422 25.9673H9.13441L9.01439 26.3755H8.37828C8.41429 26.4835 8.43829 26.6036 8.43829 26.7356C8.43829 27.468 7.85019 28.3084 6.91402 28.3564C6.67398 28.4885 6.55396 28.6686 6.55396 28.8127C6.55396 28.9822 6.75029 29.0395 7.1842 29.1662C7.24193 29.183 7.30387 29.2011 7.3701 29.2209ZM3.56462 27.1679C4.03271 27.1679 4.04471 27.372 3.9727 27.8883H4.23674L4.86085 26.1834H4.59681C4.36877 26.5916 4.17673 26.9038 3.67264 26.9038H2.64046L3.14455 25.4991C3.32458 24.9949 3.4086 24.8988 4.05671 24.8988H4.51279C5.17291 24.8988 5.24492 25.0789 5.24492 25.7752H5.50897L5.725 24.6107H1.81232L1.7403 24.8268C2.49644 24.9829 2.56845 25.0549 2.22039 26.0274L1.44025 28.1284C1.08019 29.1009 0.936164 29.1729 0.0600105 29.329L0 29.5571H4.34476L5.1249 28.3205H4.82484C4.32076 28.8127 3.81667 29.269 2.8325 29.269C1.74998 29.269 1.76926 29.216 2.09407 28.3234C2.11497 28.266 2.13715 28.205 2.16038 28.1404L2.52044 27.1799H3.56462V27.1679Z"
    fill="black"
  />
  <path
    fill-rule="evenodd"
    clip-rule="evenodd"
    d="M7.14964 16.8876C7.3896 16.8876 7.59356 16.6837 7.59356 16.4438C7.59356 16.2039 7.3896 16 7.14964 16C6.89769 16 6.70573 16.2039 6.70573 16.4438C6.70573 16.6957 6.89769 16.8876 7.14964 16.8876ZM10.7022 18.3986C10.7022 17.8229 10.5583 17.607 10.1503 17.607C9.64644 17.607 9.17853 18.1467 8.71062 18.7944L9.71843 16.0956L9.65844 16.0117L8.42268 16.1556V16.2996L8.66263 16.4795C8.87155 16.6419 8.81099 16.8044 8.63302 17.2818L8.61464 17.3311L7.52285 20.1858C7.42687 20.4257 7.31889 20.7136 7.31889 20.7856C7.31889 21.1214 7.7748 21.4453 8.19472 21.4453C9.13054 21.4573 10.7022 19.73 10.7022 18.3986ZM21.1042 17.1752L22.22 16.1556V16.0117H21.4761L20.8163 17.1752H21.1042ZM21.1765 20.0899H21.4164C20.9605 20.9415 20.4086 21.4573 19.8807 21.4453C19.4248 21.4453 19.1369 21.1214 19.1369 20.5097C19.1369 19.2143 20.1927 17.595 21.1165 17.595C21.6444 17.595 22.1123 17.9908 21.7284 18.9024L19.7727 19.5501C19.7368 19.7181 19.7128 19.91 19.7128 20.0899C19.7128 20.5337 19.8807 20.7376 20.2167 20.7376C20.5406 20.7376 20.8765 20.4497 21.1765 20.0899ZM21.1153 18.7945C21.2353 18.3387 21.0073 18.1348 20.7434 18.1348C20.4555 18.1348 20.0955 18.5546 19.9036 19.1184L21.1153 18.7945ZM17.5747 18.1595H16.9268V17.8596L17.7306 17.7516L18.4025 16.7321H18.7744L18.4145 17.7516H19.3623L19.2423 18.1595H18.2705L17.3227 20.8103C17.7546 20.7383 18.3305 20.3305 18.5945 19.9587H18.7744C18.4385 20.8463 17.5627 21.47 16.8308 21.47C16.5789 21.47 16.4469 21.2301 16.5429 20.9902L17.5747 18.1595ZM16.5931 18.4713C16.7251 18.0155 16.6531 17.6077 16.3052 17.6077C15.8713 17.6077 15.7354 17.8942 15.3149 18.7809L15.2854 18.8431V18.3154C15.2854 17.9435 15.1654 17.6077 14.8295 17.6077C14.4336 17.6077 14.0736 18.2194 13.7977 18.8311H13.9776C14.1696 18.5553 14.3496 18.3873 14.4815 18.3873C14.6495 18.3873 14.7455 18.6512 14.4815 19.227L13.7137 20.9302C13.5697 21.2541 13.7257 21.458 14.0376 21.458C14.2296 21.458 14.3136 21.41 14.3976 21.2061L15.1534 19.215C15.3694 18.9511 15.5613 18.7232 15.8013 18.4713H16.5931ZM12.7902 18.7945C12.9101 18.3387 12.6822 18.1348 12.4182 18.1348C12.1303 18.1348 11.7823 18.5546 11.5784 19.1184L12.7902 18.7945ZM13.0893 20.0899H12.8494C12.5495 20.4497 12.2135 20.7376 11.8896 20.7376C11.5536 20.7376 11.3857 20.5337 11.3857 20.0899C11.3857 19.91 11.4097 19.7181 11.4457 19.5501L13.4013 18.9024C13.7852 17.9908 13.3293 17.595 12.7894 17.595C11.8656 17.595 10.8098 19.2143 10.8098 20.5097C10.8098 21.1214 11.0977 21.4453 11.5536 21.4453C12.0815 21.4573 12.6334 20.9415 13.0893 20.0899ZM8.05122 20.5461C8.05122 20.702 8.32717 20.882 8.51913 20.882C9.29898 20.882 10.0308 19.4786 10.0188 18.6989C10.0188 18.435 9.88686 18.3271 9.7069 18.3271C9.41896 18.3271 8.89106 18.7589 8.55512 19.1667L8.24318 20.0064C8.13521 20.2822 8.05122 20.4981 8.05122 20.5461ZM6.79168 17.6077C6.93565 17.6077 7.10362 17.7516 7.03163 18.0155L5.87986 20.8343C6.1798 20.7863 6.49174 20.4984 6.6717 20.2345H6.85167C6.57572 20.9422 5.95184 21.458 5.41195 21.458C5.26798 21.458 5.07601 21.314 5.172 21.0502L6.25179 18.2314C5.95184 18.2794 5.63991 18.5673 5.45994 18.8311H5.27997C5.55592 18.1235 6.22779 17.6077 6.79168 17.6077ZM1.81165 16.3602H4.39115L4.31916 16.5881C3.44333 16.744 3.29936 16.816 2.93943 17.7876L2.17158 19.8986C1.79965 20.9062 1.89563 21.0261 2.5555 21.0261C3.37077 21.0261 3.90535 20.4337 4.37213 19.9164C4.40681 19.878 4.44111 19.84 4.47513 19.8027H4.77507L3.92324 21.314H0L0.071986 21.0981C0.935818 20.9422 1.07979 20.8702 1.43972 19.8986L2.21957 17.7756C2.5675 16.804 2.49552 16.732 1.73966 16.5761L1.81165 16.3602Z"
    fill="black"
  />
</svg>
