<svg viewBox="0 0 48 48" fill="none" xmlns="http://www.w3.org/2000/svg">
  <path
    d="M21.34 26.04C20.9 26.02 20.46 26 20 26C15.16 26 10.64 27.34 6.78 29.64C5.02 30.68 4 32.64 4 34.7V40H22.52C20.94 37.74 20 34.98 20 32C20 29.86 20.5 27.86 21.34 26.04Z"
    fill="currentColor"
  />
  <path
    d="M20 24C24.4183 24 28 20.4183 28 16C28 11.5817 24.4183 8 20 8C15.5817 8 12 11.5817 12 16C12 20.4183 15.5817 24 20 24Z"
    fill="currentColor"
  />
  <path
    d="M33 24C28.032 24 24 28.032 24 33C24 37.968 28.032 42 33 42C37.968 42 42 37.968 42 33C42 28.032 37.968 24 33 24ZM36.6 33.9H33.9V36.6C33.9 37.095 33.495 37.5 33 37.5C32.505 37.5 32.1 37.095 32.1 36.6V33.9H29.4C28.905 33.9 28.5 33.495 28.5 33C28.5 32.505 28.905 32.1 29.4 32.1H32.1V29.4C32.1 28.905 32.505 28.5 33 28.5C33.495 28.5 33.9 28.905 33.9 29.4V32.1H36.6C37.095 32.1 37.5 32.505 37.5 33C37.5 33.495 37.095 33.9 36.6 33.9Z"
    fill="currentColor"
  />
</svg>
