<svg width="24" height="24" viewBox="0 0 24 24" fill="none" xmlns="http://www.w3.org/2000/svg">
    <path d="M15.7539 14.2549H14.9639L14.6839 13.9849C15.6639 12.8449 16.2539 11.3649 16.2539 9.75488C16.2539 6.16488 13.3439 3.25488 9.75391 3.25488C6.16391 3.25488 3.25391 6.16488 3.25391 9.75488C3.25391 13.3449 6.16391 16.2549 9.75391 16.2549C11.3639 16.2549 12.8439 15.6649 13.9839 14.6849L14.2539 14.9649V15.7549L19.2539 20.7449L20.7439 19.2549L15.7539 14.2549ZM9.75391 14.2549C7.26391 14.2549 5.25391 12.2449 5.25391 9.75488C5.25391 7.26488 7.26391 5.25488 9.75391 5.25488C12.2439 5.25488 14.2539 7.26488 14.2539 9.75488C14.2539 12.2449 12.2439 14.2549 9.75391 14.2549Z" fill="#000091"/>
</svg>
