<svg
  width="16"
  height="16"
  viewBox="0 0 16 16"
  fill="none"
  xmlns="http://www.w3.org/2000/svg"
>
  <path
    fill-rule="evenodd"
    clip-rule="evenodd"
    d="M12.334 6.66683L15.2673 14.0002H13.8307L13.03 12.0002H10.3033L9.50398 14.0002H8.06798L11.0007 6.66683H12.334ZM6.66732 1.3335V2.66683H10.6673V4.00016H9.35532C8.84106 5.54821 8.0203 6.97684 6.94198 8.20083C7.42285 8.6299 7.94444 9.01104 8.49932 9.33883L7.99865 10.5908C7.28233 10.1846 6.61238 9.70149 6.00065 9.15016C4.80971 10.228 3.39934 11.035 1.86665 11.5155L1.50932 10.2295C2.82254 9.81077 4.03266 9.11972 5.06065 8.2015C4.29978 7.34012 3.66603 6.37434 3.17865 5.3335H4.67198C5.04355 6.0194 5.4891 6.66257 6.00065 7.2515C6.83406 6.2909 7.49085 5.19037 7.94065 4.00083L1.33398 4.00016V2.66683H5.33398V1.3335H6.66732ZM11.6673 8.59016L10.836 10.6668H12.4973L11.6673 8.59016Z"
    fill="#000091"
  />
</svg>
