
<svg width="80" height="92" viewBox="0 0 80 92" fill="none" xmlns="http://www.w3.org/2000/svg">
<g filter="url(#filter0_d_1_6410)">
<rect x="16.5" y="37" width="47" height="47" rx="12.5775" fill="#E5E5E5"/>
<rect x="17.2907" y="37.7907" width="45.4186" height="45.4186" rx="11.7868" stroke="white" stroke-opacity="0.75" stroke-width="1.58138"/>
<path d="M39.3015 66.7823C38.7317 66.7823 38.3333 66.6966 38.1062 66.5252C37.8792 66.3584 37.7657 66.1152 37.7657 65.7955C37.7657 65.3461 37.9001 64.8759 38.1688 64.3848C38.4421 63.8937 38.8336 63.4327 39.3432 63.0018C39.8575 62.571 40.476 62.2212 41.1987 61.9525C41.9215 61.6838 42.7322 61.5494 43.631 61.5494C44.5344 61.5494 45.3475 61.6838 46.0703 61.9525C46.793 62.2212 47.4092 62.571 47.9188 63.0018C48.4331 63.4327 48.8269 63.8937 49.1002 64.3848C49.3736 64.8759 49.5102 65.3461 49.5102 65.7955C49.5102 66.1152 49.3944 66.3584 49.1628 66.5252C48.9357 66.6966 48.5373 66.7823 47.9675 66.7823H39.3015ZM43.638 60.3124C43.1283 60.3124 42.6604 60.1757 42.2342 59.9024C41.8126 59.629 41.4744 59.2607 41.2196 58.7974C40.9648 58.3341 40.8374 57.8153 40.8374 57.2408C40.8374 56.6755 40.9648 56.1659 41.2196 55.7119C41.479 55.2532 41.8219 54.8895 42.2481 54.6208C42.6743 54.3521 43.1376 54.2178 43.638 54.2178C44.143 54.2178 44.6063 54.3498 45.0279 54.6139C45.4541 54.878 45.7946 55.2393 46.0494 55.698C46.3089 56.152 46.4386 56.6616 46.4386 57.2269C46.4386 57.806 46.3089 58.3295 46.0494 58.7974C45.7946 59.2607 45.4541 59.629 45.0279 59.9024C44.6063 60.1757 44.143 60.3124 43.638 60.3124ZM31.7753 66.7823C31.3074 66.7823 30.9761 66.6873 30.7816 66.4974C30.587 66.3121 30.4897 66.048 30.4897 65.7051C30.4897 65.2326 30.6101 64.7531 30.8511 64.2666C31.092 63.7755 31.4348 63.3238 31.8796 62.9115C32.329 62.4992 32.8664 62.1656 33.4918 61.9108C34.1219 61.656 34.8261 61.5286 35.6045 61.5286C36.2345 61.5286 36.7974 61.6119 37.2932 61.7787C37.7935 61.9409 38.236 62.1447 38.6205 62.3903C38.2267 62.7007 37.8862 63.0528 37.5989 63.4466C37.3117 63.8358 37.0893 64.2365 36.9318 64.6488C36.7789 65.0565 36.7025 65.4457 36.7025 65.8163C36.7025 66.1916 36.7951 66.5136 36.9804 66.7823H31.7753ZM35.6045 60.4722C35.1643 60.4722 34.7589 60.3541 34.3883 60.1178C34.0177 59.8769 33.7212 59.5549 33.4988 59.1519C33.2764 58.7442 33.1652 58.2924 33.1652 57.7967C33.1652 57.301 33.2764 56.8562 33.4988 56.4624C33.7258 56.064 34.0246 55.749 34.3953 55.5173C34.7659 55.281 35.169 55.1629 35.6045 55.1629C36.0399 55.1629 36.443 55.2787 36.8136 55.5104C37.1889 55.7374 37.4877 56.0501 37.7101 56.4485C37.9325 56.8423 38.0437 57.2871 38.0437 57.7828C38.0437 58.2878 37.9325 58.7442 37.7101 59.1519C37.4877 59.5549 37.1912 59.8769 36.8206 60.1178C36.45 60.3541 36.0446 60.4722 35.6045 60.4722Z" fill="white" fill-opacity="0.75"/>
</g>
<g filter="url(#filter1_d_1_6410)">
<rect x="10.5" y="19" width="59" height="59" rx="15.7887" fill="#CECECE"/>
<rect x="11.4926" y="19.9926" width="57.0149" height="57.0149" rx="14.7962" stroke="white" stroke-opacity="0.75" stroke-width="1.98513"/>
<path d="M39.1232 56.3863C38.4078 56.3863 37.9076 56.2787 37.6227 56.0635C37.3377 55.8541 37.1952 55.5488 37.1952 55.1475C37.1952 54.5834 37.3639 53.9931 37.7012 53.3766C38.0443 52.7601 38.5358 52.1814 39.1755 51.6406C39.821 51.0997 40.5975 50.6606 41.5047 50.3233C42.412 49.986 43.4298 49.8173 44.558 49.8173C45.6921 49.8173 46.7128 49.986 47.6201 50.3233C48.5273 50.6606 49.3008 51.0997 49.9406 51.6406C50.5861 52.1814 51.0805 52.7601 51.4236 53.3766C51.7667 53.9931 51.9383 54.5834 51.9383 55.1475C51.9383 55.5488 51.7929 55.8541 51.5021 56.0635C51.2171 56.2787 50.717 56.3863 50.0016 56.3863H39.1232ZM44.5668 48.2645C43.927 48.2645 43.3396 48.0929 42.8046 47.7498C42.2753 47.4066 41.8508 46.9443 41.5309 46.3627C41.211 45.7811 41.0511 45.1298 41.0511 44.4086C41.0511 43.6991 41.211 43.0593 41.5309 42.4894C41.8566 41.9136 42.287 41.4571 42.822 41.1197C43.3571 40.7824 43.9386 40.6138 44.5668 40.6138C45.2007 40.6138 45.7823 40.7795 46.3115 41.111C46.8466 41.4425 47.274 41.8962 47.5939 42.4719C47.9196 43.0419 48.0824 43.6816 48.0824 44.3911C48.0824 45.1181 47.9196 45.7753 47.5939 46.3627C47.274 46.9443 46.8466 47.4066 46.3115 47.7498C45.7823 48.0929 45.2007 48.2645 44.5668 48.2645ZM29.6754 56.3863C29.088 56.3863 28.6721 56.267 28.4279 56.0286C28.1836 55.796 28.0615 55.4645 28.0615 55.0341C28.0615 54.4409 28.2127 53.8389 28.5151 53.2283C28.8175 52.6118 29.2479 52.0448 29.8062 51.5272C30.3703 51.0095 31.045 50.5908 31.8301 50.2709C32.6211 49.9511 33.5051 49.7911 34.4821 49.7911C35.2731 49.7911 35.9797 49.8958 36.602 50.1052C37.2301 50.3087 37.7855 50.5646 38.2682 50.8729C37.7739 51.2625 37.3464 51.7045 36.9858 52.1989C36.6253 52.6874 36.3461 53.1905 36.1484 53.7081C35.9564 54.2199 35.8605 54.7084 35.8605 55.1737C35.8605 55.6448 35.9768 56.049 36.2094 56.3863H29.6754ZM34.4821 48.4651C33.9296 48.4651 33.4207 48.3168 32.9555 48.0202C32.4902 47.7178 32.118 47.3136 31.8388 46.8076C31.5597 46.2958 31.4201 45.7288 31.4201 45.1065C31.4201 44.4842 31.5597 43.9259 31.8388 43.4315C32.1238 42.9314 32.4989 42.5359 32.9642 42.2451C33.4295 41.9485 33.9354 41.8002 34.4821 41.8002C35.0288 41.8002 35.5348 41.9456 36.0001 42.2364C36.4711 42.5214 36.8463 42.9139 37.1254 43.4141C37.4046 43.9084 37.5442 44.4667 37.5442 45.089C37.5442 45.723 37.4046 46.2958 37.1254 46.8076C36.8463 47.3136 36.474 47.7178 36.0088 48.0202C35.5435 48.3168 35.0346 48.4651 34.4821 48.4651Z" fill="white" fill-opacity="0.75"/>
</g>
<g filter="url(#filter2_d_1_6410)">
<rect x="4.5" width="71" height="71" rx="19" fill="url(#paint0_linear_1_6410)"/>
<rect x="5.69444" y="1.19444" width="68.6111" height="68.6111" rx="17.8056" stroke="white" stroke-opacity="0.75" stroke-width="2.38889"/>
<path d="M38.9449 44.9902C38.0841 44.9902 37.4822 44.8608 37.1393 44.6018C36.7963 44.3499 36.6249 43.9824 36.6249 43.4995C36.6249 42.8206 36.8278 42.1103 37.2338 41.3684C37.6467 40.6265 38.2381 39.9302 39.0079 39.2793C39.7848 38.6284 40.7191 38.1 41.8109 37.6941C42.9027 37.2882 44.1275 37.0852 45.4852 37.0852C46.85 37.0852 48.0782 37.2882 49.17 37.6941C50.2618 38.1 51.1927 38.6284 51.9625 39.2793C52.7394 39.9302 53.3343 40.6265 53.7472 41.3684C54.1601 42.1103 54.3666 42.8206 54.3666 43.4995C54.3666 43.9824 54.1916 44.3499 53.8417 44.6018C53.4987 44.8608 52.8969 44.9902 52.036 44.9902H38.9449ZM45.4957 35.2166C44.7259 35.2166 44.019 35.0101 43.3751 34.5972C42.7382 34.1842 42.2273 33.6278 41.8424 32.928C41.4575 32.2281 41.265 31.4443 41.265 30.5764C41.265 29.7226 41.4575 28.9527 41.8424 28.2668C42.2343 27.574 42.7522 27.0246 43.3961 26.6187C44.04 26.2127 44.7399 26.0098 45.4957 26.0098C46.2586 26.0098 46.9585 26.2092 47.5953 26.6082C48.2392 27.0071 48.7536 27.553 49.1385 28.2458C49.5305 28.9317 49.7264 29.7016 49.7264 30.5554C49.7264 31.4303 49.5305 32.2211 49.1385 32.928C48.7536 33.6278 48.2392 34.1842 47.5953 34.5972C46.9585 35.0101 46.2586 35.2166 45.4957 35.2166ZM27.5756 44.9902C26.8687 44.9902 26.3683 44.8468 26.0743 44.5598C25.7804 44.2799 25.6334 43.8809 25.6334 43.363C25.6334 42.6492 25.8154 41.9248 26.1793 41.1899C26.5433 40.4481 27.0612 39.7657 27.733 39.1428C28.4119 38.5199 29.2238 38.016 30.1686 37.6311C31.1204 37.2462 32.1842 37.0537 33.36 37.0537C34.3118 37.0537 35.1621 37.1797 35.911 37.4316C36.6669 37.6766 37.3352 37.9845 37.9161 38.3555C37.3212 38.8244 36.8068 39.3563 36.3729 39.9512C35.939 40.5391 35.6031 41.1444 35.3651 41.7673C35.1342 42.3832 35.0187 42.9711 35.0187 43.531C35.0187 44.0979 35.1587 44.5843 35.4386 44.9902H27.5756ZM33.36 35.458C32.6951 35.458 32.0827 35.2795 31.5228 34.9226C30.9629 34.5587 30.515 34.0723 30.1791 33.4634C29.8431 32.8475 29.6752 32.1651 29.6752 31.4163C29.6752 30.6674 29.8431 29.9955 30.1791 29.4006C30.522 28.7987 30.9734 28.3228 31.5333 27.9729C32.0932 27.616 32.7021 27.4375 33.36 27.4375C34.0179 27.4375 34.6267 27.6125 35.1866 27.9624C35.7535 28.3053 36.205 28.7778 36.5409 29.3796C36.8768 29.9745 37.0448 30.6464 37.0448 31.3953C37.0448 32.1581 36.8768 32.8475 36.5409 33.4634C36.205 34.0723 35.757 34.5587 35.1971 34.9226C34.6372 35.2795 34.0249 35.458 33.36 35.458Z" fill="white" fill-opacity="0.75"/>
</g>
<defs>
<filter id="filter0_d_1_6410" x="12.5" y="37" width="55" height="55" filterUnits="userSpaceOnUse" color-interpolation-filters="sRGB">
<feFlood flood-opacity="0" result="BackgroundImageFix"/>
<feColorMatrix in="SourceAlpha" type="matrix" values="0 0 0 0 0 0 0 0 0 0 0 0 0 0 0 0 0 0 127 0" result="hardAlpha"/>
<feOffset dy="4"/>
<feGaussianBlur stdDeviation="2"/>
<feComposite in2="hardAlpha" operator="out"/>
<feColorMatrix type="matrix" values="0 0 0 0 0 0 0 0 0 0 0 0 0 0 0 0 0 0 0.04 0"/>
<feBlend mode="normal" in2="BackgroundImageFix" result="effect1_dropShadow_1_6410"/>
<feBlend mode="normal" in="SourceGraphic" in2="effect1_dropShadow_1_6410" result="shape"/>
</filter>
<filter id="filter1_d_1_6410" x="6.5" y="19" width="67" height="67" filterUnits="userSpaceOnUse" color-interpolation-filters="sRGB">
<feFlood flood-opacity="0" result="BackgroundImageFix"/>
<feColorMatrix in="SourceAlpha" type="matrix" values="0 0 0 0 0 0 0 0 0 0 0 0 0 0 0 0 0 0 127 0" result="hardAlpha"/>
<feOffset dy="4"/>
<feGaussianBlur stdDeviation="2"/>
<feComposite in2="hardAlpha" operator="out"/>
<feColorMatrix type="matrix" values="0 0 0 0 0 0 0 0 0 0 0 0 0 0 0 0 0 0 0.04 0"/>
<feBlend mode="normal" in2="BackgroundImageFix" result="effect1_dropShadow_1_6410"/>
<feBlend mode="normal" in="SourceGraphic" in2="effect1_dropShadow_1_6410" result="shape"/>
</filter>
<filter id="filter2_d_1_6410" x="0.5" y="0" width="79" height="79" filterUnits="userSpaceOnUse" color-interpolation-filters="sRGB">
<feFlood flood-opacity="0" result="BackgroundImageFix"/>
<feColorMatrix in="SourceAlpha" type="matrix" values="0 0 0 0 0 0 0 0 0 0 0 0 0 0 0 0 0 0 127 0" result="hardAlpha"/>
<feOffset dy="4"/>
<feGaussianBlur stdDeviation="2"/>
<feComposite in2="hardAlpha" operator="out"/>
<feColorMatrix type="matrix" values="0 0 0 0 0 0 0 0 0 0 0 0 0 0 0 0 0 0 0.04 0"/>
<feBlend mode="normal" in2="BackgroundImageFix" result="effect1_dropShadow_1_6410"/>
<feBlend mode="normal" in="SourceGraphic" in2="effect1_dropShadow_1_6410" result="shape"/>
</filter>
<linearGradient id="paint0_linear_1_6410" x1="40" y1="-8.5" x2="42" y2="91" gradientUnits="userSpaceOnUse">
<stop stop-color="#929292"/>
<stop offset="1" stop-color="#CECECE"/>
</linearGradient>
</defs>
</svg>
