<svg width="48" height="48" viewBox="0 0 48 48" fill="none" xmlns="http://www.w3.org/2000/svg">
<path d="M12 38C12 40.2 13.8 42 16 42H32C34.2 42 36 40.2 36 38V14H12V38ZM18.34 25.18C17.56 24.4 17.56 23.14 18.34 22.36C19.12 21.58 20.38 21.58 21.16 22.36L24 25.18L26.82 22.36C27.6 21.58 28.86 21.58 29.64 22.36C30.42 23.14 30.42 24.4 29.64 25.18L26.82 28L29.64 30.82C30.42 31.6 30.42 32.86 29.64 33.64C28.86 34.42 27.6 34.42 26.82 33.64L24 30.82L21.18 33.64C20.4 34.42 19.14 34.42 18.36 33.64C17.58 32.86 17.58 31.6 18.36 30.82L21.18 28L18.34 25.18ZM36 8H31L29.58 6.58C29.22 6.22 28.7 6 28.18 6H19.82C19.3 6 18.78 6.22 18.42 6.58L17 8H12C10.9 8 10 8.9 10 10C10 11.1 10.9 12 12 12H36C37.1 12 38 11.1 38 10C38 8.9 37.1 8 36 8Z" fill="#000091"/>
</svg>
