<svg viewBox="0 0 24 24" fill="none" xmlns="http://www.w3.org/2000/svg">
<path d="M20.75 0.75H3.25C1.8625 0.75 0.75 1.875 0.75 3.25V20.75C0.75 22.125 1.8625 23.25 3.25 23.25H20.75C22.125 23.25 23.25 22.125 23.25 20.75V3.25C23.25 1.875 22.125 0.75 20.75 0.75ZM17 13.25H13.25V17C13.25 17.6875 12.6875 18.25 12 18.25C11.3125 18.25 10.75 17.6875 10.75 17V13.25H7C6.3125 13.25 5.75 12.6875 5.75 12C5.75 11.3125 6.3125 10.75 7 10.75H10.75V7C10.75 6.3125 11.3125 5.75 12 5.75C12.6875 5.75 13.25 6.3125 13.25 7V10.75H17C17.6875 10.75 18.25 11.3125 18.25 12C18.25 12.6875 17.6875 13.25 17 13.25Z" fill="currentColor"/>
</svg>
