<svg
  width="48"
  height="49"
  viewBox="0 0 48 49"
  fill="none"
  xmlns="http://www.w3.org/2000/svg"
>
  <path
    fill-rule="evenodd"
    clip-rule="evenodd"
    d="M41.7012 0.558594C45.1791 0.558594 47.9995 3.3445 47.9995 6.91157C47.9995 16.0522 47.9995 33.1064 47.9995 42.247C47.9995 45.7026 45.1791 48.6 41.7012 48.6C32.5048 48.6 15.5055 48.6 6.30916 48.6C2.82012 48.6 0 45.7026 0 42.247C0 33.1064 0 16.0522 0 6.91157C0 3.3445 2.82012 0.558594 6.30916 0.558594H41.7012Z"
    fill="white"
  />
  <path
    d="M35.0137 22.6992C35.6937 22.6992 36.3537 22.7792 37.0137 22.8792V13.2392L22.0137 6.69922L7.01367 13.2392V23.0592C7.01367 32.1392 13.4137 40.6392 22.0137 42.6992C23.1137 42.4392 24.1737 42.0592 25.2137 41.5992C23.8337 39.6392 23.0137 37.2592 23.0137 34.6992C23.0137 28.0792 28.3937 22.6992 35.0137 22.6992Z"
    fill="#000091"
  />
  <path
    d="M35.0137 26.6992C30.5937 26.6992 27.0137 30.2792 27.0137 34.6992C27.0137 39.1192 30.5937 42.6992 35.0137 42.6992C39.4337 42.6992 43.0137 39.1192 43.0137 34.6992C43.0137 30.2792 39.4337 26.6992 35.0137 26.6992ZM35.0137 29.4592C36.2537 29.4592 37.2537 30.4792 37.2537 31.6992C37.2537 32.9192 36.2337 33.9392 35.0137 33.9392C33.7937 33.9392 32.7737 32.9192 32.7737 31.6992C32.7737 30.4792 33.7737 29.4592 35.0137 29.4592ZM35.0137 40.1992C33.1537 40.1992 31.5337 39.2792 30.5337 37.8592C30.6337 36.4192 33.5537 35.6992 35.0137 35.6992C36.4737 35.6992 39.3937 36.4192 39.4937 37.8592C38.4937 39.2792 36.8737 40.1992 35.0137 40.1992Z"
    fill="#E1000F"
  />
</svg>
