<svg viewBox="0 0 41 39" fill="none" xmlns="http://www.w3.org/2000/svg">
<path d="M35.7941 20.6945C33.8535 20.6945 32.052 19.4495 31.4319 17.4987C30.6646 15.0855 31.9962 12.5063 34.406 11.7379C34.868 11.5906 35.3361 11.5205 35.7965 11.5205C37.7371 11.5205 39.5386 12.7656 40.1587 14.7161C40.9261 17.1295 39.5944 19.7087 37.1846 20.4772C36.7227 20.6244 36.2544 20.6945 35.7941 20.6945Z" fill="#000091"/>
<path d="M34.5271 27.8442C35.25 27.4943 35.7975 26.809 35.9377 25.9554C36.1665 24.5616 35.2238 23.2458 33.832 23.0167C33.0544 22.8887 32.2816 22.8267 31.5179 22.8267C30.0882 22.8267 28.6926 23.0442 27.3699 23.452C26.4866 22.2232 25.8084 20.8654 25.3541 19.4365C24.8882 17.9708 24.6574 16.4304 24.6814 14.8774C26.7391 14.2179 28.6763 13.0776 30.315 11.4558C30.8765 10.9003 31.1266 10.1487 31.0647 9.41846C31.1336 9.9223 31.0533 10.4517 30.8025 10.9377C28.4985 15.4006 30.2496 20.9084 34.7064 23.2161C35.9591 23.8649 36.4499 25.4081 35.8021 26.6625C35.5168 27.2153 35.058 27.6199 34.5271 27.8442Z" fill="#000091"/>
<path d="M29.6422 38.9999C28.2165 38.9999 26.8121 38.3354 25.9176 37.0873C24.4433 35.0295 24.9138 32.1644 26.9685 30.6878C27.7768 30.107 28.7102 29.8276 29.6343 29.8276C31.0598 29.8276 32.4644 30.4919 33.3587 31.7402C34.8332 33.798 34.3628 36.6631 32.3081 38.1395C31.4997 38.7205 30.5664 38.9999 29.6422 38.9999Z" fill="#E1000F"/>
<path d="M20.0313 37.7184C19.8934 37.7184 19.7541 37.7071 19.6136 37.6842C19.0005 37.583 18.4746 37.2713 18.0977 36.8349C18.5686 37.3268 19.229 37.6241 19.9395 37.6241C20.0673 37.6241 20.1968 37.6145 20.3271 37.5946C21.7217 37.3818 22.6799 36.0774 22.4675 34.681C22.1266 32.4399 21.2783 30.4005 20.0573 28.6611C20.9513 27.4401 22.0312 26.3748 23.2479 25.5005C24.4958 24.6038 25.8874 23.9079 27.3698 23.4512C28.632 25.2071 30.3135 26.6994 32.3601 27.759C32.7353 27.9534 33.1362 28.0454 33.5312 28.0454C33.8743 28.0454 34.2133 27.9757 34.5269 27.8433C34.1886 28.0071 33.8119 28.0976 33.4204 28.0976C33.2828 28.0976 33.1432 28.0862 33.0029 28.0633C32.5052 27.9811 32.0101 27.9416 31.5212 27.9416C27.1486 27.9416 23.2809 31.1162 22.5482 35.5754C22.3423 36.8286 21.2591 37.7184 20.0313 37.7184Z" fill="#E1000F"/>
<path d="M33.5248 28.0462C33.1297 28.0462 32.7288 27.9543 32.3537 27.7599C30.307 26.7003 28.6255 25.208 27.3633 23.452C28.686 23.0442 30.0815 22.8267 31.5113 22.8267C32.2749 22.8267 33.0477 22.8887 33.8253 23.0167C35.2172 23.2458 36.1599 24.5616 35.9311 25.9554C35.7908 26.809 35.2433 27.4942 34.5205 27.8442C34.2068 27.9765 33.8679 28.0462 33.5248 28.0462Z" fill="#6D2700"/>
<path d="M10.3416 38.7923C9.39936 38.7923 8.44894 38.5023 7.63175 37.9003C5.59448 36.3995 5.15785 33.5291 6.65647 31.489C7.55399 30.2671 8.94222 29.6201 10.3489 29.6201C11.2912 29.6201 12.2416 29.9104 13.0588 30.5124C15.096 32.013 15.5327 34.8836 14.034 36.9237C13.1366 38.1454 11.7483 38.7923 10.3416 38.7923Z" fill="#E1000F"/>
<path d="M18.0934 36.8362C17.7418 36.4693 17.4958 35.9937 17.4135 35.4527C16.7284 30.9489 12.8409 27.7125 8.42383 27.7125C7.96983 27.7125 7.51056 27.7468 7.04827 27.8171C6.91806 27.837 6.78862 27.8466 6.6608 27.8466C5.42004 27.8466 4.33134 26.9397 4.13887 25.6739C4.04527 25.0586 4.17885 24.4614 4.47689 23.9673C4.0973 24.6761 4.05657 25.5525 4.4443 26.3257C4.89261 27.2199 5.79338 27.7363 6.72875 27.7363C7.11393 27.7363 7.5051 27.6487 7.87279 27.4637C9.89584 26.4467 11.5707 25.0083 12.8452 23.3081C14.2811 23.7821 15.6267 24.4815 16.8329 25.3701C18.0701 26.2816 19.1611 27.3918 20.053 28.6624C18.7755 30.4072 17.8777 32.4698 17.5038 34.7465C17.3756 35.5265 17.6144 36.2821 18.0934 36.8362Z" fill="#E1000F"/>
<path d="M19.9345 37.6241C19.224 37.6241 18.5636 37.3268 18.0926 36.8349C17.6137 36.2808 17.3748 35.5252 17.5031 34.7452C17.8769 32.4685 18.7747 30.4059 20.0522 28.6611C21.2733 30.4005 22.1216 32.4399 22.4625 34.681C22.6749 36.0774 21.7167 37.3819 20.3221 37.5946C20.1918 37.6145 20.0623 37.6241 19.9345 37.6241Z" fill="#6D2700"/>
<path d="M4.58127 20.3585C4.1036 20.3585 3.618 20.2832 3.13975 20.1244C0.739113 19.3276 -0.561933 16.7329 0.233815 14.3288C0.871033 12.4037 2.6598 11.1846 4.57985 11.1846C5.05753 11.1846 5.54314 11.26 6.02139 11.4187C8.42203 12.2156 9.72307 14.8105 8.92732 17.2145C8.29011 19.1395 6.50134 20.3585 4.58127 20.3585Z" fill="#000091"/>
<path d="M4.48047 23.9669C4.72047 23.5187 5.09596 23.1376 5.58427 22.8921C10.0678 20.6379 11.8839 15.1512 9.63285 10.6609C9.00015 9.39848 9.50889 7.86127 10.7693 7.22763C11.137 7.04273 11.5283 6.95508 11.9135 6.95508C12.11 6.95508 12.305 6.97788 12.4945 7.02216C12.3443 6.99509 12.192 6.98153 12.0397 6.98153C11.3912 6.98153 10.7423 7.22739 10.2446 7.71995C9.2413 8.71285 9.23173 10.3323 10.2233 11.3369C11.8145 12.9493 13.6979 14.1001 15.7066 14.7884C15.7001 16.3025 15.4516 17.8001 14.9805 19.2236C14.4972 20.6835 13.7798 22.0655 12.8488 23.3077C11.4468 22.8447 9.9589 22.5965 8.43031 22.5965C7.72172 22.5965 7.00417 22.6498 6.28274 22.7599C5.50254 22.879 4.85893 23.3396 4.48047 23.9669Z" fill="#000091"/>
<path d="M6.73234 27.7346C5.79697 27.7346 4.89619 27.2182 4.44789 26.324C4.06016 25.5508 4.10088 24.6744 4.48048 23.9656C4.85894 23.3383 5.50255 22.8776 6.28274 22.7586C7.00418 22.6485 7.72173 22.5952 8.43032 22.5952C9.95891 22.5952 11.4468 22.8433 12.8488 23.3064C11.5743 25.0067 9.89943 26.445 7.87638 27.462C7.50869 27.647 7.11751 27.7346 6.73234 27.7346Z" fill="#6D2700"/>
<path d="M20.3024 9.17157C20.2932 9.17157 20.2841 9.17155 20.2749 9.17148C17.7458 9.1565 15.7077 7.09128 15.7227 4.55868C15.7376 2.03535 17.7851 0 20.3013 0C20.3107 0 20.3196 4.36376e-05 20.329 8.73232e-05C22.8581 0.0150715 24.896 2.08029 24.8812 4.61289C24.8664 7.13624 22.8189 9.17157 20.3024 9.17157Z" fill="#000091"/>
<path d="M20.3304 15.5561C20.302 15.5561 20.2741 15.5561 20.2457 15.5559C18.7099 15.5467 17.1755 15.2905 15.7082 14.7877C15.7175 12.6241 15.2333 10.4269 14.1994 8.36499C13.8453 7.65864 13.2089 7.18804 12.4961 7.02148C12.996 7.11156 13.4738 7.3514 13.858 7.74064C15.6347 9.54114 17.9821 10.4433 20.3299 10.4433C22.642 10.4433 24.9547 9.56899 26.7254 7.81682C27.2232 7.32436 27.8721 7.07852 28.5206 7.07852C29.1793 7.07852 29.8376 7.33204 30.3371 7.83827C30.774 8.28092 31.0165 8.84278 31.0654 9.41786C30.9563 8.62108 30.4749 7.88805 29.7074 7.49067C29.3324 7.29651 28.9315 7.20446 28.5365 7.20446C27.6119 7.20446 26.7196 7.70883 26.2656 8.58803C25.2261 10.6017 24.7152 12.751 24.6821 14.8768C23.2695 15.3296 21.7996 15.5561 20.3304 15.5561Z" fill="#000091"/>
<path d="M24.6797 14.8774C24.7128 12.7517 25.2237 10.6024 26.2632 8.58864C26.7172 7.70945 27.6095 7.20508 28.5341 7.20508C28.9291 7.20508 29.33 7.29712 29.705 7.49128C30.4725 7.88867 30.9539 8.62169 31.063 9.41847C31.1249 10.1488 30.8748 10.9004 30.3133 11.4558C28.6746 13.0776 26.7374 14.2179 24.6797 14.8774Z" fill="#000091"/>
<path d="M15.713 14.7878C13.7042 14.0995 11.8208 12.9487 10.2296 11.3363C9.23809 10.3317 9.24766 8.71228 10.251 7.71937C10.7487 7.22682 11.3976 6.98096 12.0461 6.98096C12.1983 6.98096 12.3507 6.99452 12.5009 7.02158C13.2137 7.18814 13.8501 7.65874 14.2042 8.36509C15.2381 10.427 15.7223 12.6242 15.713 14.7878Z" fill="#000091"/>
</svg>
