<svg viewBox="0 0 48 48" fill="none" xmlns="http://www.w3.org/2000/svg">
  <path
    fill-rule="evenodd"
    clip-rule="evenodd"
    d="M13.9997 38.9665C16.9598 40.9443 20.4399 42 24 42C28.7739 42 33.3523 40.1036 36.7279 36.7279C40.1036 33.3523 42 28.7739 42 24C42 20.4399 40.9443 16.9598 38.9665 13.9997C36.9886 11.0397 34.1774 8.73255 30.8883 7.37018C27.5992 6.0078 23.98 5.65134 20.4884 6.34587C16.9967 7.04041 13.7894 8.75474 11.2721 11.2721C8.75474 13.7894 7.04041 16.9967 6.34587 20.4884C5.65134 23.98 6.0078 27.5992 7.37018 30.8883C8.73255 34.1774 11.0397 36.9886 13.9997 38.9665ZM15.6665 11.528C18.1332 9.87974 21.0333 9.00001 24 9.00001C27.9783 9.00001 31.7936 10.5804 34.6066 13.3934C37.4197 16.2065 39 20.0218 39 24C39 26.9667 38.1203 29.8668 36.4721 32.3336C34.8238 34.8003 32.4812 36.7229 29.7403 37.8582C26.9994 38.9935 23.9834 39.2906 21.0737 38.7118C18.1639 38.133 15.4912 36.7044 13.3934 34.6066C11.2956 32.5088 9.86701 29.8361 9.28823 26.9264C8.70945 24.0166 9.0065 21.0006 10.1418 18.2598C11.2771 15.5189 13.1997 13.1762 15.6665 11.528ZM24 25.5H30C30.3978 25.5 30.7794 25.342 31.0607 25.0607C31.342 24.7794 31.5 24.3978 31.5 24C31.5 23.6022 31.342 23.2206 31.0607 22.9393C30.7794 22.658 30.3978 22.5 30 22.5H25.5V14C25.5 13.6022 25.342 13.2206 25.0607 12.9393C24.7794 12.658 24.3978 12.5 24 12.5C23.6022 12.5 23.2206 12.658 22.9393 12.9393C22.658 13.2206 22.5 13.6022 22.5 14V24C22.5052 24.3962 22.6649 24.7747 22.9451 25.0549C23.2253 25.3351 23.6038 25.4948 24 25.5Z"
    fill="currentColor"
  />
</svg>
